<?xml version="1.0" encoding="UTF-8" standalone="no"?>
<!DOCTYPE svg PUBLIC "-//W3C//DTD SVG 1.0//EN" "http://www.w3.org/TR/2001/PR-SVG-20010719/DTD/svg10.dtd">
<svg width="27cm" height="21cm" viewBox="338 70 535 402" xmlns="http://www.w3.org/2000/svg" xmlns:xlink="http://www.w3.org/1999/xlink">
  <g id="Background">
    <g>
      <rect style="fill: #ffffff; fill-opacity: 1; stroke-opacity: 1; stroke-width: 0.02; stroke-dasharray: 20; stroke: #000000" x="338" y="71" width="406" height="231" rx="0" ry="0"/>
      <text font-size="12.8" style="fill: #000000; fill-opacity: 1; stroke: none;text-anchor:middle;font-family:sans-serif;font-style:normal;font-weight:normal" x="541" y="190.4">
        <tspan x="541" y="190.4"></tspan>
      </text>
    </g>
    <g>
      <path style="fill: #b7b79d; fill-opacity: 1; stroke: none" fill-rule="evenodd" d="M 714.896 438.603 L 796.287,438.603 L 796.287,453.645 L 714.896,453.645 L 714.896,438.603z"/>
      <path style="fill: none; stroke-opacity: 1; stroke-width: 0.02; stroke: #494936" d="M 714.896 438.603 L 796.287,438.603 L 796.287,453.645 L 714.896,453.645 L 714.896,438.603"/>
      <path style="fill: #c9c9b6; fill-opacity: 1; stroke: none" fill-rule="evenodd" d="M 714.896 438.603 L 723.526,430.421 L 804.917,430.421 L 796.287,438.603 L 714.896,438.603z"/>
      <path style="fill: none; stroke-opacity: 1; stroke-width: 0.02; stroke: #494936" d="M 714.896 438.603 L 723.526,430.421 L 804.917,430.421 L 796.287,438.603 L 714.896,438.603"/>
      <path style="fill: none; stroke-opacity: 1; stroke-width: 0.02; stroke: #000000" d="M 791.735 445.45 L 772.204,445.45"/>
      <path style="fill: #7a7a5a; fill-opacity: 1; stroke: none" fill-rule="evenodd" d="M 796.287 453.645 L 804.917,444.989 L 804.917,430.421 L 796.287,438.603 L 796.287,453.645z"/>
      <path style="fill: none; stroke-opacity: 1; stroke-width: 0.02; stroke: #494936" d="M 796.287 453.645 L 804.917,444.989 L 804.917,430.421 L 796.287,438.603 L 796.287,453.645"/>
      <path style="fill: #c9c9b6; fill-opacity: 1; stroke: none" fill-rule="evenodd" d="M 715.358 463.185 L 724.437,451.811 L 787.195,451.811 L 778.116,463.185 L 715.358,463.185z"/>
      <path style="fill: none; stroke-opacity: 1; stroke-width: 0.02; stroke: #494936" d="M 715.358 463.185 L 724.437,451.811 L 787.195,451.811 L 778.116,463.185 L 715.358,463.185"/>
      <path style="fill: #7a7a5a; fill-opacity: 1; stroke: none" fill-rule="evenodd" d="M 778.116 465.455 L 787.195,455.914 L 787.195,451.811 L 778.116,463.185 L 778.116,465.455z"/>
      <path style="fill: none; stroke-opacity: 1; stroke-width: 0.02; stroke: #494936" d="M 778.116 465.455 L 787.195,455.914 L 787.195,451.811 L 778.116,463.185 L 778.116,465.455"/>
      <path style="fill: #b7b79d; fill-opacity: 1; stroke: none" fill-rule="evenodd" d="M 715.358 463.185 L 778.116,463.185 L 778.116,465.455 L 715.358,465.455 L 715.358,463.185z"/>
      <path style="fill: none; stroke-opacity: 1; stroke-width: 0.02; stroke: #494936" d="M 715.358 463.185 L 778.116,463.185 L 778.116,465.455 L 715.358,465.455 L 715.358,463.185"/>
      <path style="fill: #000000; fill-opacity: 1; stroke: none" fill-rule="evenodd" d="M 727.168 436.794 L 734.003,430.421 L 791.735,430.421 L 785.387,436.794 L 727.168,436.794z"/>
      <path style="fill: none; stroke-opacity: 1; stroke-width: 0.02; stroke: #000000" d="M 727.168 436.794 L 734.003,430.421 L 791.735,430.421 L 785.387,436.794 L 727.168,436.794"/>
      <path style="fill: #c9c9b6; fill-opacity: 1; stroke: none" fill-rule="evenodd" d="M 726.706 389.912 L 733.093,384 L 790.85,384 L 784.464,389.912 L 726.706,389.912z"/>
      <path style="fill: none; stroke-opacity: 1; stroke-width: 0.02; stroke: #494936" d="M 726.706 389.912 L 733.093,384 L 790.85,384 L 784.464,389.912 L 726.706,389.912"/>
      <path style="fill: #b7b79d; fill-opacity: 1; stroke: none" fill-rule="evenodd" d="M 726.706 389.912 L 784.925,389.912 L 784.925,435.871 L 726.706,435.871 L 726.706,389.912z"/>
      <path style="fill: none; stroke-opacity: 1; stroke-width: 0.02; stroke: #494936" d="M 726.706 389.912 L 784.9,389.912 L 784.9,435.858 L 726.706,435.858 L 726.706,389.912"/>
      <path style="fill: #ffffff; fill-opacity: 1; stroke: none" fill-rule="evenodd" d="M 731.708 395.81 L 779.911,395.81 L 779.911,431.319 L 731.708,431.319 L 731.708,395.81z"/>
      <path style="fill: none; stroke-opacity: 1; stroke-width: 0.02; stroke: #494936" d="M 731.708 395.81 L 779.911,395.81 L 779.911,431.306 L 731.708,431.306 L 731.708,395.81"/>
      <path style="fill: #7a7a5a; fill-opacity: 1; stroke: none" fill-rule="evenodd" d="M 784.464 435.435 L 790.85,429.062 L 790.85,384 L 784.464,389.912 L 784.464,435.435z"/>
      <path style="fill: none; stroke-opacity: 1; stroke-width: 0.02; stroke: #494936" d="M 784.464 435.435 L 790.85,429.062 L 790.85,384 L 784.464,389.912 L 784.464,435.435"/>
    </g>
    <g>
      <path style="fill: #b7b796; fill-opacity: 1; stroke-opacity: 1; stroke-width: 0.02; stroke: #000000" fill-rule="evenodd" d="M 545.667 468.115 L 594.371,468.115 L 594.371,364.25 L 545.667,364.25 L 545.667,468.115z"/>
      <path style="fill: none; stroke-opacity: 1; stroke-width: 0.02; stroke: #494936" d="M 545.667 468.115 L 594.371,468.115 L 594.371,364.25 L 545.667,364.25 L 545.667,468.115"/>
      <path style="fill: #c9c9b6; fill-opacity: 1; stroke-opacity: 1; stroke-width: 0.02; stroke: #000000" fill-rule="evenodd" d="M 545.667 364.25 L 554.972,355.003 L 601.931,355.003 L 594.373,364.25 L 545.667,364.25z"/>
      <path style="fill: none; stroke-opacity: 1; stroke-width: 0.02; stroke: #494936" d="M 545.667 364.25 L 554.972,355.003 L 601.931,355.003 L 594.373,364.25 L 545.667,364.25"/>
      <path style="fill: #7a7a5a; fill-opacity: 1; stroke-opacity: 1; stroke-width: 0.02; stroke: #000000" fill-rule="evenodd" d="M 594.369 468.115 L 601.928,453.716 L 601.928,355 L 594.369,364.247 L 594.369,468.112 L 594.369,468.115z"/>
      <path style="fill: none; stroke-opacity: 1; stroke-width: 0.02; stroke: #494936" d="M 594.369 468.115 L 601.928,453.716 L 601.928,355 L 594.369,364.247 L 594.369,468.112"/>
      <path style="fill: #b7b796; fill-opacity: 1; stroke-opacity: 1; stroke-width: 0.02; stroke: #000000" fill-rule="evenodd" d="M 598.246 472.753 L 594.373,468.115 L 545.667,468.115 L 540.996,472.753 L 598.246,472.753 L 598.246,472.753z"/>
      <path style="fill: none; stroke-opacity: 1; stroke-width: 0.02; stroke: #494936" d="M 598.246 472.753 L 594.373,468.115 L 545.667,468.115 L 540.996,472.753 L 598.246,472.753"/>
      <path style="fill: #b7b796; fill-opacity: 1; stroke-opacity: 1; stroke-width: 0.02; stroke: #000000" fill-rule="evenodd" d="M 598.246 472.753 L 605.779,456.64 L 601.928,453.716 L 594.369,468.115 L 598.243,472.753 L 598.246,472.753z"/>
      <path style="fill: none; stroke-opacity: 1; stroke-width: 0.02; stroke: #494936" d="M 598.246 472.753 L 605.779,456.64 L 601.928,453.716 L 594.369,468.115 L 598.243,472.753"/>
      <path style="fill: #b7b796; fill-opacity: 1; stroke: none" fill-rule="evenodd" d="M 594.369 468.115 L 545.663,468.115 L 594.369,468.115z"/>
      <path style="fill: none; stroke-opacity: 1; stroke-width: 0.02; stroke: #494936" d="M 594.369 468.115 L 545.663,468.115"/>
      <path style="fill: #b7b796; fill-opacity: 1; stroke: none" fill-rule="evenodd" d="M 601.928 453.716 L 594.369,468.115 L 601.928,453.716z"/>
      <path style="fill: none; stroke-opacity: 1; stroke-width: 0.02; stroke: #494936" d="M 601.928 453.716 L 594.369,468.115"/>
      <path style="fill: #b7b796; fill-opacity: 1; stroke: none" fill-rule="evenodd" d="M 545.689 369.041 L 594.177,369.041 L 545.689,369.041z"/>
      <path style="fill: none; stroke-opacity: 1; stroke-width: 0.02; stroke: #494936" d="M 545.689 369.041 L 594.177,369.041"/>
      <path style="fill: #b7b796; fill-opacity: 1; stroke: none" fill-rule="evenodd" d="M 545.647 369.63 L 594.135,369.63 L 545.647,369.63z"/>
      <path style="fill: none; stroke-opacity: 1; stroke-width: 0.02; stroke: #494936" d="M 545.647 369.63 L 594.135,369.63"/>
      <path style="fill: #b7b796; fill-opacity: 1; stroke: none" fill-rule="evenodd" d="M 584.277 382.061 L 548.939,382.061 L 548.939,385.313 L 555.47,385.313 L 584.277,382.061z"/>
      <path style="fill: none; stroke-opacity: 1; stroke-width: 0.02; stroke: #494936" d="M 584.277 382.061 L 548.939,382.061 L 548.939,385.313 L 555.47,385.313"/>
      <path style="fill: #b7b796; fill-opacity: 1; stroke: none" fill-rule="evenodd" d="M 584.277 388.091 L 548.939,388.091 L 548.939,391.343 L 555.47,391.343 L 584.277,388.091z"/>
      <path style="fill: none; stroke-opacity: 1; stroke-width: 0.02; stroke: #494936" d="M 584.277 388.091 L 548.939,388.091 L 548.939,391.343 L 555.47,391.343"/>
      <path style="fill: #b7b796; fill-opacity: 1; stroke: none" fill-rule="evenodd" d="M 584.277 394.124 L 548.939,394.124 L 548.939,397.377 L 555.47,397.377 L 584.277,394.124z"/>
      <path style="fill: none; stroke-opacity: 1; stroke-width: 0.02; stroke: #494936" d="M 584.277 394.124 L 548.939,394.124 L 548.939,397.377 L 555.47,397.377"/>
      <path style="fill: #b7b796; fill-opacity: 1; stroke: none" fill-rule="evenodd" d="M 584.277 400.154 L 548.939,400.154 L 548.939,403.407 L 555.47,403.407 L 584.277,400.154z"/>
      <path style="fill: none; stroke-opacity: 1; stroke-width: 0.02; stroke: #494936" d="M 584.277 400.154 L 548.939,400.154 L 548.939,403.407 L 555.47,403.407"/>
      <path style="fill: #b7b796; fill-opacity: 1; stroke: none" fill-rule="evenodd" d="M 584.277 406.188 L 548.939,406.188 L 548.939,409.44 L 555.47,409.44 L 584.277,406.188z"/>
      <path style="fill: none; stroke-opacity: 1; stroke-width: 0.02; stroke: #494936" d="M 584.277 406.188 L 548.939,406.188 L 548.939,409.44 L 555.47,409.44"/>
      <path style="fill: #b7b796; fill-opacity: 1; stroke: none" fill-rule="evenodd" d="M 584.277 412.218 L 548.939,412.218 L 548.939,415.47 L 555.47,415.47 L 584.277,412.218z"/>
      <path style="fill: none; stroke-opacity: 1; stroke-width: 0.02; stroke: #494936" d="M 584.277 412.218 L 548.939,412.218 L 548.939,415.47 L 555.47,415.47"/>
      <path style="fill: #b7b796; fill-opacity: 1; stroke: none" fill-rule="evenodd" d="M 584.277 418.248 L 548.939,418.248 L 548.939,421.5 L 555.47,421.5 L 584.277,418.248z"/>
      <path style="fill: none; stroke-opacity: 1; stroke-width: 0.02; stroke: #494936" d="M 584.277 418.248 L 548.939,418.248 L 548.939,421.5 L 555.47,421.5"/>
      <path style="fill: #b7b796; fill-opacity: 1; stroke: none" fill-rule="evenodd" d="M 584.277 424.281 L 548.939,424.281 L 548.939,427.534 L 555.47,427.534 L 584.277,424.281z"/>
      <path style="fill: none; stroke-opacity: 1; stroke-width: 0.02; stroke: #494936" d="M 584.277 424.281 L 548.939,424.281 L 548.939,427.534 L 555.47,427.534"/>
      <path style="fill: #b7b796; fill-opacity: 1; stroke: none" fill-rule="evenodd" d="M 584.277 430.311 L 548.939,430.311 L 548.939,433.564 L 555.47,433.564 L 584.277,430.311z"/>
      <path style="fill: none; stroke-opacity: 1; stroke-width: 0.02; stroke: #494936" d="M 584.277 430.311 L 548.939,430.311 L 548.939,433.564 L 555.47,433.564"/>
      <path style="fill: #b7b796; fill-opacity: 1; stroke: none" fill-rule="evenodd" d="M 584.277 436.345 L 548.939,436.345 L 548.939,439.597 L 555.47,439.597 L 584.277,436.345z"/>
      <path style="fill: none; stroke-opacity: 1; stroke-width: 0.02; stroke: #494936" d="M 584.277 436.345 L 548.939,436.345 L 548.939,439.597 L 555.47,439.597"/>
      <path style="fill: #b7b796; fill-opacity: 1; stroke: none" fill-rule="evenodd" d="M 584.277 442.375 L 548.939,442.375 L 548.939,445.627 L 555.47,445.627 L 584.277,442.375z"/>
      <path style="fill: none; stroke-opacity: 1; stroke-width: 0.02; stroke: #494936" d="M 584.277 442.375 L 548.939,442.375 L 548.939,445.627 L 555.47,445.627"/>
      <path style="fill: #b7b796; fill-opacity: 1; stroke: none" fill-rule="evenodd" d="M 584.277 448.405 L 548.939,448.405 L 548.939,451.657 L 555.47,451.657 L 584.277,448.405z"/>
      <path style="fill: none; stroke-opacity: 1; stroke-width: 0.02; stroke: #494936" d="M 584.277 448.405 L 548.939,448.405 L 548.939,451.657 L 555.47,451.657"/>
      <path style="fill: #b7b796; fill-opacity: 1; stroke: none" fill-rule="evenodd" d="M 584.277 454.438 L 548.939,454.438 L 548.939,457.691 L 555.47,457.691 L 584.277,454.438z"/>
      <path style="fill: none; stroke-opacity: 1; stroke-width: 0.02; stroke: #494936" d="M 584.277 454.438 L 548.939,454.438 L 548.939,457.691 L 555.47,457.691"/>
      <path style="fill: #b7b796; fill-opacity: 1; stroke: none" fill-rule="evenodd" d="M 584.277 460.468 L 548.939,460.468 L 548.939,463.721 L 555.47,463.721 L 584.277,460.468z"/>
      <path style="fill: none; stroke-opacity: 1; stroke-width: 0.02; stroke: #494936" d="M 584.277 460.468 L 548.939,460.468 L 548.939,463.721 L 555.47,463.721"/>
    </g>
    <g>
      <path style="fill: none; stroke-opacity: 1; stroke-width: 0.02; stroke: #7a7a5a" d="M 438.97 402.326 L 472.296,369"/>
      <path style="fill: none; stroke-opacity: 1; stroke-width: 0.02; stroke: #7a7a5a" d="M 451.013 402.326 L 484.341,369"/>
      <path style="fill: none; stroke-opacity: 1; stroke-width: 0.02; stroke: #7a7a5a" d="M 463.056 402.326 L 496.382,369"/>
      <path style="fill: none; stroke-opacity: 1; stroke-width: 0.02; stroke: #7a7a5a" d="M 475.099 402.326 L 508.425,369"/>
      <path style="fill: none; stroke-opacity: 1; stroke-width: 0.02; stroke: #7a7a5a" d="M 487.144 402.326 L 520.47,369"/>
      <path style="fill: none; stroke-opacity: 1; stroke-width: 0.02; stroke: #7a7a5a" d="M 450.38 384.262 L 510.599,384.262"/>
      <path style="fill: none; stroke-opacity: 1; stroke-width: 0.02; stroke: #7a7a5a" d="M 481.123 384.579 L 481.123,436.368"/>
      <path style="fill: none; stroke-opacity: 1; stroke-width: 0.02; stroke: #7a7a5a" d="M 483.002 407.736 L 483.002,464.715"/>
      <path style="fill: #7a7a5a; fill-opacity: 1; stroke-opacity: 1; stroke-width: 0.02; stroke: #7a7a5a" fill-rule="evenodd" d="M 478.196 427.644 L 485.061,427.644 L 485.061,415.287 L 478.196,415.287 L 478.196,427.644z"/>
    </g>
    <g>
      <path style="fill: #93936c; fill-opacity: 1; stroke: none" fill-rule="evenodd" d="M 722.453 130.848 L 710.747,121.037 L 672.232,126.474 L 685.25,135.496 L 722.453,130.848z"/>
      <path style="fill: none; stroke-opacity: 1; stroke-width: 0.02; stroke: #494936" d="M 722.453 130.848 L 710.747,121.037 L 672.232,126.474 L 685.25,135.496 L 722.453,130.848"/>
      <path style="fill: #7a7a5a; fill-opacity: 1; stroke: none" fill-rule="evenodd" d="M 685.25 136.533 L 672.232,127.503 L 672.232,126.474 L 685.25,135.496 L 685.25,136.533z"/>
      <path style="fill: none; stroke-opacity: 1; stroke-width: 0.02; stroke: #494936" d="M 685.25 136.533 L 672.232,127.503 L 672.232,126.474 L 685.25,135.496 L 685.25,136.533"/>
      <path style="fill: #626248; fill-opacity: 1; stroke: none" fill-rule="evenodd" d="M 722.453 130.848 L 722.453,131.628 L 685.25,136.533 L 685.25,135.496 L 722.453,130.848z"/>
      <path style="fill: none; stroke-opacity: 1; stroke-width: 0.02; stroke: #494936" d="M 722.453 130.848 L 722.453,131.628 L 685.25,136.533 L 685.25,135.496 L 722.453,130.848"/>
      <path style="fill: #a5a585; fill-opacity: 1; stroke: none" fill-rule="evenodd" d="M 672.755 133.172 L 693.046,129.818 L 696.956,127.503 L 692.265,126.98 L 672.755,129.818 L 672.755,129.818 L 672.755,133.172z"/>
      <path style="fill: #a5a585; fill-opacity: 1; stroke: none" fill-rule="evenodd" d="M 672.755 133.172 L 693.046,129.818 L 696.956,127.503 L 692.265,126.98 L 672.755,129.818 L 672.755,133.172z"/>
      <path style="fill: none; stroke-opacity: 1; stroke-width: 0.02; stroke: #494936" d="M 672.755 133.172 L 693.046,129.818 L 696.956,127.503 L 692.265,126.98 L 672.755,129.818"/>
      <path style="fill: #dbdbce; fill-opacity: 1; stroke: none" fill-rule="evenodd" d="M 673.021 130.848 L 672.755,131.628 L 692.017,128.275 L 695.13,127.76 L 692.788,127.503 L 673.021,130.848z"/>
      <path style="fill: #7a7a5a; fill-opacity: 1; stroke: none" fill-rule="evenodd" d="M 676.648 153.3 L 676.631,153.162 L 676.614,153.034 L 676.571,152.905 L 676.511,152.776 L 676.451,152.648 L 676.374,152.528 L 676.271,152.399 L 676.151,152.279 L 676.022,152.159 L 675.876,152.047 L 675.722,151.936 L 675.542,151.824 L 675.37,151.722 L 675.173,151.619 L 674.967,151.516 L 674.753,151.43 L 674.513,151.344 L 674.264,151.258 L 674.024,151.181 L 673.775,151.104 L 673.501,151.044 L 673.235,150.984 L 672.943,150.933 L 672.652,150.881 L 672.369,150.838 L 672.069,150.804 L 671.769,150.77 L 671.46,150.752 L 671.151,150.735 L 670.834,150.718 L 670.542,150.718 L 670.542,150.718 L 670.233,150.718 L 669.916,150.735 L 669.607,150.752 L 669.316,150.77 L 668.998,150.804 L 668.698,150.838 L 668.415,150.881 L 668.132,150.933 L 667.841,150.984 L 667.575,151.044 L 667.3,151.104 L 667.052,151.181 L 666.803,151.258 L 666.554,151.344 L 666.323,151.43 L 666.1,151.516 L 665.894,151.619 L 665.697,151.722 L 665.525,151.824 L 665.354,151.936 L 665.199,152.047 L 665.045,152.159 L 664.925,152.279 L 664.813,152.399 L 664.71,152.528 L 664.616,152.648 L 664.556,152.776 L 664.496,152.905 L 664.462,153.034 L 664.436,153.162 L 664.427,153.3 L 664.427,153.3 L 664.436,153.428 L 664.462,153.557 L 664.496,153.685 L 664.556,153.814 L 664.616,153.943 L 664.71,154.063 L 664.813,154.191 L 664.925,154.312 L 665.045,154.432 L 665.199,154.543 L 665.354,154.646 L 665.525,154.766 L 665.697,154.86 L 665.894,154.972 L 666.1,155.075 L 666.323,155.161 L 666.554,155.246 L 666.803,155.332 L 667.052,155.409 L 667.3,155.486 L 667.575,155.546 L 667.841,155.607 L 668.132,155.658 L 668.415,155.709 L 668.698,155.752 L 668.998,155.795 L 669.316,155.821 L 669.607,155.847 L 669.916,155.855 L 670.233,155.872 L 670.542,155.872 L 670.542,155.872 L 670.834,155.872 L 671.151,155.855 L 671.46,155.847 L 671.769,155.821 L 672.069,155.795 L 672.369,155.752 L 672.652,155.709 L 672.943,155.658 L 673.235,155.607 L 673.501,155.546 L 673.775,155.486 L 674.024,155.409 L 674.264,155.332 L 674.513,155.246 L 674.753,155.161 L 674.967,155.075 L 675.173,154.972 L 675.37,154.86 L 675.542,154.766 L 675.722,154.646 L 675.876,154.543 L 676.022,154.432 L 676.151,154.312 L 676.271,154.191 L 676.374,154.063 L 676.451,153.943 L 676.511,153.814 L 676.571,153.685 L 676.614,153.557 L 676.631,153.428 L 676.648,153.3z"/>
      <path style="fill: none; stroke-opacity: 1; stroke-width: 0.02; stroke: #494936" d="M 676.408 153.042 L 676.391,152.914 L 676.382,152.776 L 676.34,152.648 L 676.288,152.528 L 676.228,152.399 L 676.134,152.27 L 676.031,152.15 L 675.928,152.013 L 675.799,151.902 L 675.645,151.782 L 675.508,151.679 L 675.328,151.567 L 675.156,151.456 L 674.967,151.353 L 674.762,151.25 L 674.556,151.164 L 674.324,151.087 L 674.093,151.001 L 673.835,150.915 L 673.587,150.847 L 673.329,150.778 L 673.055,150.718 L 672.789,150.658 L 672.506,150.615 L 672.206,150.572 L 671.914,150.538 L 671.631,150.504 L 671.323,150.487 L 671.031,150.469 L 670.722,150.452 L 670.414,150.452 L 670.414,150.452 L 670.122,150.452 L 669.805,150.469 L 669.513,150.487 L 669.213,150.504 L 668.913,150.538 L 668.63,150.572 L 668.338,150.615 L 668.055,150.658 L 667.789,150.718 L 667.498,150.778 L 667.258,150.847 L 667,150.915 L 666.752,151.001 L 666.52,151.087 L 666.288,151.164 L 666.083,151.25 L 665.885,151.353 L 665.671,151.456 L 665.499,151.567 L 665.345,151.679 L 665.199,151.782 L 665.036,151.902 L 664.908,152.013 L 664.813,152.15 L 664.71,152.27 L 664.608,152.399 L 664.556,152.528 L 664.496,152.648 L 664.462,152.776 L 664.436,152.914 L 664.427,153.042 L 664.427,153.042 L 664.436,153.171 L 664.462,153.3 L 664.496,153.437 L 664.556,153.557 L 664.608,153.685 L 664.71,153.814 L 664.813,153.943 L 664.908,154.063 L 665.036,154.183 L 665.199,154.294 L 665.345,154.406 L 665.499,154.509 L 665.671,154.62 L 665.885,154.732 L 666.083,154.826 L 666.288,154.912 L 666.52,154.998 L 666.752,155.092 L 667,155.169 L 667.258,155.238 L 667.498,155.289 L 667.789,155.358 L 668.055,155.418 L 668.338,155.469 L 668.63,155.504 L 668.913,155.546 L 669.213,155.581 L 669.513,155.598 L 669.805,155.615 L 670.122,155.624 L 670.414,155.624 L 670.414,155.624 L 670.722,155.624 L 671.031,155.615 L 671.323,155.598 L 671.631,155.581 L 671.914,155.546 L 672.206,155.504 L 672.506,155.469 L 672.789,155.418 L 673.055,155.358 L 673.329,155.289 L 673.587,155.238 L 673.835,155.169 L 674.093,155.092 L 674.324,154.998 L 674.556,154.912 L 674.762,154.826 L 674.967,154.732 L 675.156,154.62 L 675.328,154.509 L 675.508,154.406 L 675.645,154.294 L 675.799,154.183 L 675.928,154.063 L 676.031,153.943 L 676.134,153.814 L 676.228,153.685 L 676.288,153.557 L 676.34,153.437 L 676.382,153.3 L 676.391,153.171 L 676.408,153.042"/>
      <path style="fill: #b7b79d; fill-opacity: 1; stroke: none" fill-rule="evenodd" d="M 658.973 114.339 L 658.973,150.452 L 681.863,150.452 L 681.863,114.339 L 658.973,114.339z"/>
      <path style="fill: #dbdbce; fill-opacity: 1; stroke: none" fill-rule="evenodd" d="M 682.12 114.467 L 682.094,114.313 L 682.06,114.167 L 681.983,114.013 L 681.88,113.867 L 681.751,113.721 L 681.588,113.584 L 681.399,113.438 L 681.176,113.292 L 680.936,113.155 L 680.67,113.027 L 680.362,112.889 L 680.036,112.778 L 679.701,112.649 L 679.324,112.538 L 678.938,112.426 L 678.526,112.315 L 678.089,112.22 L 677.635,112.126 L 677.146,112.032 L 676.665,111.946 L 676.168,111.869 L 675.636,111.8 L 675.105,111.74 L 674.564,111.689 L 674.015,111.637 L 673.449,111.594 L 672.866,111.551 L 672.3,111.543 L 671.717,111.517 L 671.134,111.509 L 670.542,111.5 L 670.542,111.5 L 669.959,111.509 L 669.376,111.517 L 668.784,111.543 L 668.218,111.551 L 667.643,111.594 L 667.069,111.637 L 666.529,111.689 L 665.988,111.74 L 665.448,111.8 L 664.925,111.869 L 664.41,111.946 L 663.93,112.032 L 663.458,112.126 L 662.995,112.22 L 662.566,112.315 L 662.146,112.426 L 661.769,112.538 L 661.383,112.649 L 661.04,112.778 L 660.723,112.889 L 660.422,113.027 L 660.157,113.155 L 659.899,113.292 L 659.685,113.438 L 659.505,113.584 L 659.342,113.721 L 659.205,113.867 L 659.102,114.013 L 659.025,114.167 L 658.982,114.313 L 658.973,114.467 L 658.973,114.467 L 658.982,114.622 L 659.025,114.767 L 659.102,114.913 L 659.205,115.068 L 659.342,115.213 L 659.505,115.351 L 659.685,115.496 L 659.899,115.625 L 660.157,115.771 L 660.422,115.908 L 660.723,116.037 L 661.04,116.157 L 661.383,116.285 L 661.769,116.397 L 662.146,116.508 L 662.566,116.62 L 662.995,116.714 L 663.458,116.8 L 663.93,116.894 L 664.41,116.989 L 664.925,117.057 L 665.448,117.126 L 665.988,117.177 L 666.529,117.246 L 667.069,117.289 L 667.643,117.332 L 668.218,117.375 L 668.784,117.392 L 669.376,117.417 L 669.959,117.426 L 670.542,117.435 L 670.542,117.435 L 671.134,117.426 L 671.717,117.417 L 672.3,117.392 L 672.866,117.375 L 673.449,117.332 L 674.015,117.289 L 674.564,117.246 L 675.105,117.177 L 675.636,117.126 L 676.168,117.057 L 676.665,116.989 L 677.146,116.894 L 677.635,116.8 L 678.089,116.714 L 678.526,116.62 L 678.938,116.508 L 679.324,116.397 L 679.701,116.285 L 680.036,116.157 L 680.362,116.037 L 680.67,115.908 L 680.936,115.771 L 681.176,115.625 L 681.399,115.496 L 681.588,115.351 L 681.751,115.213 L 681.88,115.068 L 681.983,114.913 L 682.06,114.767 L 682.094,114.622 L 682.12,114.467z"/>
      <path style="fill: none; stroke-opacity: 1; stroke-width: 0.02; stroke: #494936" d="M 681.863 114.339 L 681.863,114.193 L 681.811,114.056 L 681.742,113.91 L 681.631,113.764 L 681.502,113.627 L 681.339,113.481 L 681.159,113.352 L 680.945,113.215 L 680.688,113.087 L 680.439,112.958 L 680.139,112.838 L 679.813,112.718 L 679.461,112.598 L 679.11,112.486 L 678.724,112.392 L 678.312,112.28 L 677.875,112.186 L 677.42,112.083 L 676.966,112.006 L 676.477,111.929 L 675.971,111.86 L 675.473,111.792 L 674.942,111.74 L 674.393,111.68 L 673.835,111.629 L 673.287,111.594 L 672.729,111.551 L 672.154,111.534 L 671.571,111.509 L 670.997,111.5 L 670.414,111.5 L 670.414,111.5 L 669.839,111.5 L 669.264,111.509 L 668.681,111.534 L 668.124,111.551 L 667.549,111.594 L 667,111.629 L 666.434,111.68 L 665.903,111.74 L 665.371,111.792 L 664.865,111.86 L 664.367,111.929 L 663.87,112.006 L 663.424,112.083 L 662.961,112.186 L 662.541,112.28 L 662.121,112.392 L 661.726,112.486 L 661.383,112.598 L 661.031,112.718 L 660.705,112.838 L 660.414,112.958 L 660.148,113.087 L 659.899,113.215 L 659.668,113.352 L 659.496,113.481 L 659.342,113.627 L 659.213,113.764 L 659.11,113.91 L 659.025,114.056 L 658.982,114.193 L 658.973,114.339 L 658.973,114.339 L 658.982,114.484 L 659.025,114.622 L 659.11,114.767 L 659.213,114.913 L 659.342,115.05 L 659.496,115.188 L 659.668,115.325 L 659.899,115.462 L 660.148,115.591 L 660.414,115.711 L 660.705,115.839 L 661.031,115.96 L 661.383,116.071 L 661.726,116.183 L 662.121,116.285 L 662.541,116.388 L 662.961,116.483 L 663.424,116.586 L 663.87,116.671 L 664.367,116.74 L 664.865,116.817 L 665.371,116.886 L 665.903,116.937 L 666.434,116.997 L 667,117.049 L 667.549,117.083 L 668.124,117.117 L 668.681,117.143 L 669.264,117.169 L 669.839,117.177 L 670.414,117.177 L 670.414,117.177 L 670.997,117.177 L 671.571,117.169 L 672.154,117.143 L 672.729,117.117 L 673.287,117.083 L 673.835,117.049 L 674.393,116.997 L 674.942,116.937 L 675.473,116.886 L 675.971,116.817 L 676.477,116.74 L 676.966,116.671 L 677.42,116.586 L 677.875,116.483 L 678.312,116.388 L 678.724,116.285 L 679.11,116.183 L 679.461,116.071 L 679.813,115.96 L 680.139,115.839 L 680.439,115.711 L 680.688,115.591 L 680.945,115.462 L 681.159,115.325 L 681.339,115.188 L 681.502,115.05 L 681.631,114.913 L 681.742,114.767 L 681.811,114.622 L 681.863,114.484 L 681.863,114.339"/>
      <path style="fill: #b7b79d; fill-opacity: 1; stroke: none" fill-rule="evenodd" d="M 670.542 150.452 L 658.973,150.452 L 658.982,150.607 L 659.025,150.77 L 659.102,150.924 L 659.205,151.078 L 659.342,151.233 L 659.505,151.379 L 659.685,151.533 L 659.899,151.67 L 660.157,151.816 L 660.422,151.953 L 660.723,152.09 L 661.04,152.219 L 661.383,152.348 L 661.769,152.468 L 662.146,152.588 L 662.566,152.699 L 662.995,152.802 L 663.458,152.896 L 663.93,152.991 L 664.41,153.077 L 664.925,153.145 L 665.448,153.231 L 665.988,153.3 L 666.529,153.351 L 667.069,153.402 L 667.643,153.445 L 668.218,153.48 L 668.784,153.505 L 669.376,153.531 L 669.959,153.54 L 670.542,153.548 L 671.134,153.54 L 671.717,153.531 L 672.3,153.505 L 672.866,153.48 L 673.449,153.445 L 674.015,153.402 L 674.564,153.351 L 675.105,153.3 L 675.636,153.231 L 676.168,153.145 L 676.665,153.077 L 677.146,152.991 L 677.635,152.896 L 678.089,152.802 L 678.526,152.699 L 678.938,152.588 L 679.324,152.468 L 679.701,152.348 L 680.036,152.219 L 680.362,152.09 L 680.67,151.953 L 680.936,151.816 L 681.176,151.67 L 681.399,151.533 L 681.588,151.379 L 681.751,151.233 L 681.88,151.078 L 681.983,150.924 L 682.06,150.77 L 682.094,150.607 L 682.12,150.452 L 670.542,150.452z"/>
      <path style="fill: none; stroke-opacity: 1; stroke-width: 0.02; stroke: #494936" d="M 658.973 150.452 L 658.99,150.615 L 659.025,150.77 L 659.119,150.924 L 659.213,151.087 L 659.35,151.216 L 659.505,151.387 L 659.685,151.533 L 659.899,151.679 L 660.157,151.824 L 660.431,151.953 L 660.731,152.099 L 661.049,152.219 L 661.383,152.348 L 661.769,152.468 L 662.155,152.588 L 662.566,152.699 L 662.995,152.802 L 663.467,152.905 L 663.939,152.999 L 664.41,153.085 L 664.925,153.145 L 665.457,153.24 L 665.988,153.3 L 666.529,153.351 L 667.077,153.402 L 667.652,153.445 L 668.218,153.497 L 668.793,153.505 L 669.384,153.531 L 669.959,153.548 L 670.542,153.548 L 671.134,153.548 L 671.717,153.531 L 672.3,153.505 L 672.875,153.497 L 673.449,153.445 L 674.007,153.402 L 674.564,153.351 L 675.105,153.3 L 675.645,153.24 L 676.168,153.145 L 676.674,153.085 L 677.146,152.999 L 677.635,152.905 L 678.089,152.802 L 678.526,152.699 L 678.938,152.588 L 679.324,152.468 L 679.701,152.348 L 680.036,152.219 L 680.37,152.099 L 680.67,151.953 L 680.945,151.824 L 681.185,151.679 L 681.408,151.533 L 681.597,151.387 L 681.751,151.216 L 681.88,151.087 L 681.974,150.924 L 682.06,150.77 L 682.094,150.615 L 682.12,150.452"/>
      <path style="fill: #313124; fill-opacity: 1; stroke: none" fill-rule="evenodd" d="M 679.264 114.21 L 679.247,114.116 L 679.204,114.013 L 679.161,113.91 L 679.075,113.824 L 678.972,113.73 L 678.861,113.635 L 678.724,113.533 L 678.544,113.447 L 678.372,113.361 L 678.166,113.267 L 677.943,113.189 L 677.686,113.104 L 677.437,113.027 L 677.146,112.941 L 676.863,112.881 L 676.554,112.812 L 676.228,112.744 L 675.876,112.675 L 675.525,112.623 L 675.156,112.572 L 674.77,112.512 L 674.376,112.478 L 673.981,112.435 L 673.578,112.392 L 673.149,112.366 L 672.729,112.34 L 672.3,112.315 L 671.863,112.298 L 671.426,112.289 L 670.98,112.28 L 670.542,112.28 L 670.542,112.28 L 670.105,112.28 L 669.65,112.289 L 669.213,112.298 L 668.784,112.315 L 668.355,112.34 L 667.935,112.366 L 667.506,112.392 L 667.112,112.435 L 666.709,112.478 L 666.314,112.512 L 665.937,112.572 L 665.568,112.623 L 665.208,112.675 L 664.865,112.744 L 664.539,112.812 L 664.23,112.881 L 663.93,112.941 L 663.647,113.027 L 663.39,113.104 L 663.15,113.189 L 662.927,113.267 L 662.721,113.361 L 662.541,113.447 L 662.361,113.533 L 662.232,113.635 L 662.112,113.73 L 662.009,113.824 L 661.923,113.91 L 661.872,114.013 L 661.838,114.116 L 661.82,114.21 L 661.82,114.21 L 661.838,114.304 L 661.872,114.407 L 661.923,114.502 L 662.009,114.596 L 662.112,114.69 L 662.232,114.785 L 662.361,114.888 L 662.541,114.973 L 662.721,115.059 L 662.927,115.145 L 663.15,115.239 L 663.39,115.316 L 663.647,115.394 L 663.93,115.462 L 664.23,115.539 L 664.539,115.608 L 664.865,115.677 L 665.208,115.728 L 665.568,115.797 L 665.937,115.839 L 666.314,115.891 L 666.709,115.942 L 667.112,115.985 L 667.506,116.028 L 667.935,116.054 L 668.355,116.088 L 668.784,116.105 L 669.213,116.122 L 669.65,116.14 L 670.105,116.14 L 670.542,116.14 L 670.542,116.14 L 670.98,116.14 L 671.426,116.14 L 671.863,116.122 L 672.3,116.105 L 672.729,116.088 L 673.149,116.054 L 673.578,116.028 L 673.981,115.985 L 674.376,115.942 L 674.77,115.891 L 675.156,115.839 L 675.525,115.797 L 675.876,115.728 L 676.228,115.677 L 676.554,115.608 L 676.863,115.539 L 677.146,115.462 L 677.437,115.394 L 677.686,115.316 L 677.943,115.239 L 678.166,115.145 L 678.372,115.059 L 678.544,114.973 L 678.724,114.888 L 678.861,114.785 L 678.972,114.69 L 679.075,114.596 L 679.161,114.502 L 679.204,114.407 L 679.247,114.304 L 679.264,114.21z"/>
      <path style="fill: none; stroke-opacity: 1; stroke-width: 0.02; stroke: #494936" d="M 679.007 114.09 L 678.99,113.996 L 678.964,113.893 L 678.912,113.798 L 678.827,113.721 L 678.724,113.635 L 678.612,113.533 L 678.484,113.455 L 678.312,113.37 L 678.132,113.292 L 677.918,113.207 L 677.703,113.129 L 677.472,113.044 L 677.206,112.984 L 676.931,112.889 L 676.648,112.838 L 676.331,112.778 L 676.014,112.718 L 675.679,112.658 L 675.319,112.598 L 674.967,112.555 L 674.581,112.503 L 674.204,112.461 L 673.801,112.426 L 673.398,112.392 L 672.986,112.358 L 672.575,112.34 L 672.154,112.323 L 671.717,112.298 L 671.271,112.289 L 670.842,112.28 L 670.414,112.28 L 670.414,112.28 L 669.985,112.28 L 669.556,112.289 L 669.11,112.298 L 668.681,112.323 L 668.261,112.34 L 667.841,112.358 L 667.446,112.392 L 667.035,112.426 L 666.64,112.461 L 666.254,112.503 L 665.885,112.555 L 665.517,112.598 L 665.174,112.658 L 664.813,112.718 L 664.505,112.778 L 664.187,112.838 L 663.913,112.889 L 663.63,112.984 L 663.373,113.044 L 663.141,113.129 L 662.91,113.207 L 662.712,113.292 L 662.541,113.37 L 662.352,113.455 L 662.232,113.533 L 662.112,113.635 L 662.018,113.721 L 661.932,113.798 L 661.88,113.893 L 661.855,113.996 L 661.829,114.09 L 661.829,114.09 L 661.855,114.176 L 661.88,114.27 L 661.932,114.356 L 662.018,114.442 L 662.112,114.536 L 662.232,114.622 L 662.352,114.707 L 662.541,114.793 L 662.712,114.87 L 662.91,114.965 L 663.141,115.033 L 663.373,115.119 L 663.63,115.188 L 663.913,115.265 L 664.187,115.325 L 664.505,115.385 L 664.813,115.445 L 665.174,115.505 L 665.517,115.565 L 665.885,115.616 L 666.254,115.668 L 666.64,115.702 L 667.035,115.728 L 667.446,115.771 L 667.841,115.814 L 668.261,115.831 L 668.681,115.839 L 669.11,115.874 L 669.556,115.882 L 669.985,115.891 L 670.414,115.891 L 670.414,115.891 L 670.842,115.891 L 671.271,115.882 L 671.717,115.874 L 672.154,115.839 L 672.575,115.831 L 672.986,115.814 L 673.398,115.771 L 673.801,115.728 L 674.204,115.702 L 674.581,115.668 L 674.967,115.616 L 675.319,115.565 L 675.679,115.505 L 676.014,115.445 L 676.331,115.385 L 676.648,115.325 L 676.931,115.265 L 677.206,115.188 L 677.472,115.119 L 677.703,115.033 L 677.918,114.965 L 678.132,114.87 L 678.312,114.793 L 678.484,114.707 L 678.612,114.622 L 678.724,114.536 L 678.827,114.442 L 678.912,114.356 L 678.964,114.27 L 678.99,114.176 L 679.007,114.09"/>
      <path style="fill: none; stroke-opacity: 1; stroke-width: 0.02; stroke: #000000" d="M 658.973 114.339 L 658.973,150.186"/>
      <path style="fill: none; stroke-opacity: 1; stroke-width: 0.02; stroke: #000000" d="M 681.863 114.339 L 681.863,150.186"/>
      <path style="fill: none; stroke-opacity: 1; stroke-width: 0.02; stroke: #dbdbce" d="M 658.905 115.677 L 659.025,115.831 L 659.205,115.994 L 659.385,116.148 L 659.616,116.294 L 659.874,116.448 L 660.157,116.586 L 660.474,116.74 L 660.8,116.877 L 661.177,117.006 L 661.572,117.126 L 661.983,117.255 L 662.421,117.375 L 662.892,117.477 L 663.381,117.58 L 663.87,117.675 L 664.402,117.761 L 664.959,117.838 L 665.499,117.915 L 666.083,117.975 L 666.674,118.035 L 667.258,118.086 L 667.841,118.121 L 668.458,118.164 L 669.076,118.181"/>
      <path style="fill: none; stroke-opacity: 1; stroke-width: 0.02; stroke: #dbdbce" d="M 658.905 149.989 L 659.042,150.144 L 659.205,150.307 L 659.402,150.469 L 659.616,150.624 L 659.882,150.77 L 660.165,150.915 L 660.474,151.053 L 660.817,151.19 L 661.177,151.327 L 661.572,151.447 L 662,151.567 L 662.446,151.687 L 662.892,151.799 L 663.39,151.902 L 663.896,151.987 L 664.402,152.073 L 664.959,152.15 L 665.517,152.236 L 666.083,152.288 L 666.674,152.348 L 667.258,152.399 L 667.841,152.442 L 668.458,152.476 L 669.076,152.502"/>
      <path style="fill: #dbdbce; fill-opacity: 1; stroke: none" fill-rule="evenodd" d="M 661.049 116.911 L 661.049,151.241 L 662.867,151.49 L 665.465,152.005 L 668.338,152.005 L 670.156,152.27 L 670.156,117.958 L 667.558,117.958 L 665.465,117.692 L 663.39,117.435 L 661.049,116.911z"/>
      <path style="fill: #b7b79d; fill-opacity: 1; stroke: none" fill-rule="evenodd" d="M 664.702 133.952 L 663.647,137.305 L 662.618,139.364 L 661.572,141.173 L 660.002,143.24 L 660.525,137.82 L 661.323,136.533 L 661.572,134.973 L 664.702,133.952z"/>
      <path style="fill: #93936c; fill-opacity: 1; stroke: none" fill-rule="evenodd" d="M 660.791 140.41 L 649.076,130.59 L 610.57,137.048 L 623.58,146.07 L 660.791,140.41z"/>
      <path style="fill: none; stroke-opacity: 1; stroke-width: 0.02; stroke: #494936" d="M 660.791 140.41 L 649.076,130.59 L 610.57,137.048 L 623.58,146.07 L 660.791,140.41"/>
      <path style="fill: #7a7a5a; fill-opacity: 1; stroke: none" fill-rule="evenodd" d="M 623.58 147.108 L 610.57,138.069 L 610.57,137.048 L 623.58,146.07 L 623.58,147.108z"/>
      <path style="fill: none; stroke-opacity: 1; stroke-width: 0.02; stroke: #494936" d="M 623.58 147.108 L 610.57,138.069 L 610.57,137.048 L 623.58,146.07 L 623.58,147.108"/>
      <path style="fill: #626248; fill-opacity: 1; stroke: none" fill-rule="evenodd" d="M 660.791 140.41 L 660.791,141.173 L 623.58,147.108 L 623.58,146.07 L 660.791,140.41z"/>
      <path style="fill: none; stroke-opacity: 1; stroke-width: 0.02; stroke: #494936" d="M 660.791 140.41 L 660.791,141.173 L 623.58,147.108 L 623.58,146.07 L 660.791,140.41"/>
      <path style="fill: #a5a585; fill-opacity: 1; stroke: none" fill-rule="evenodd" d="M 664.693 133.686 L 664.693,133.6 L 664.685,133.506 L 664.676,133.42 L 664.668,133.317 L 664.659,133.232 L 664.642,133.146 L 664.616,133.069 L 664.599,132.974 L 664.582,132.897 L 664.565,132.82 L 664.539,132.734 L 664.505,132.657 L 664.47,132.58 L 664.445,132.52 L 664.402,132.451 L 664.367,132.383 L 664.325,132.323 L 664.282,132.263 L 664.247,132.211 L 664.196,132.16 L 664.162,132.117 L 664.119,132.074 L 664.067,132.031 L 664.016,131.997 L 663.964,131.971 L 663.921,131.945 L 663.861,131.92 L 663.819,131.911 L 663.75,131.894 L 663.707,131.885 L 663.647,131.885 L 663.647,131.885 L 663.604,131.885 L 663.544,131.894 L 663.493,131.911 L 663.433,131.92 L 663.39,131.945 L 663.33,131.971 L 663.295,131.997 L 663.244,132.031 L 663.193,132.074 L 663.15,132.117 L 663.098,132.16 L 663.064,132.211 L 663.012,132.263 L 662.987,132.323 L 662.944,132.383 L 662.892,132.451 L 662.867,132.52 L 662.841,132.58 L 662.789,132.657 L 662.772,132.734 L 662.755,132.82 L 662.729,132.897 L 662.695,132.974 L 662.678,133.069 L 662.669,133.146 L 662.652,133.232 L 662.644,133.317 L 662.635,133.42 L 662.626,133.506 L 662.618,133.6 L 662.618,133.686 L 662.618,133.686 L 662.618,133.772 L 662.626,133.866 L 662.635,133.961 L 662.644,134.055 L 662.652,134.141 L 662.669,134.226 L 662.678,134.312 L 662.695,134.398 L 662.729,134.475 L 662.755,134.561 L 662.772,134.638 L 662.789,134.707 L 662.841,134.792 L 662.867,134.861 L 662.892,134.921 L 662.944,134.99 L 662.987,135.058 L 663.012,135.118 L 663.064,135.17 L 663.098,135.213 L 663.15,135.264 L 663.193,135.307 L 663.244,135.341 L 663.295,135.376 L 663.33,135.401 L 663.39,135.427 L 663.433,135.453 L 663.493,135.47 L 663.544,135.479 L 663.604,135.487 L 663.647,135.487 L 663.647,135.487 L 663.707,135.487 L 663.75,135.479 L 663.819,135.47 L 663.861,135.453 L 663.921,135.427 L 663.964,135.401 L 664.016,135.376 L 664.067,135.341 L 664.119,135.307 L 664.162,135.264 L 664.196,135.213 L 664.247,135.17 L 664.282,135.118 L 664.325,135.058 L 664.367,134.99 L 664.402,134.921 L 664.445,134.861 L 664.47,134.792 L 664.505,134.707 L 664.539,134.638 L 664.565,134.561 L 664.582,134.475 L 664.599,134.398 L 664.616,134.312 L 664.642,134.226 L 664.659,134.141 L 664.668,134.055 L 664.676,133.961 L 664.685,133.866 L 664.693,133.772 L 664.693,133.686z"/>
      <path style="fill: none; stroke-opacity: 1; stroke-width: 0.02; stroke: #494936" d="M 664.427 133.42 L 664.427,133.343 L 664.41,133.249 L 664.41,133.163 L 664.402,133.069 L 664.393,132.983 L 664.376,132.897 L 664.367,132.811 L 664.342,132.717 L 664.316,132.64 L 664.299,132.554 L 664.273,132.468 L 664.247,132.4 L 664.222,132.323 L 664.17,132.254 L 664.144,132.185 L 664.11,132.117 L 664.067,132.065 L 664.024,132.005 L 663.982,131.954 L 663.939,131.902 L 663.896,131.851 L 663.853,131.817 L 663.81,131.774 L 663.741,131.748 L 663.699,131.705 L 663.647,131.688 L 663.596,131.671 L 663.536,131.645 L 663.493,131.637 L 663.433,131.628 L 663.39,131.628 L 663.39,131.628 L 663.33,131.628 L 663.287,131.637 L 663.227,131.645 L 663.193,131.671 L 663.124,131.688 L 663.072,131.705 L 663.012,131.748 L 662.978,131.774 L 662.927,131.817 L 662.884,131.851 L 662.841,131.902 L 662.781,131.954 L 662.755,132.005 L 662.712,132.065 L 662.669,132.117 L 662.635,132.185 L 662.601,132.254 L 662.566,132.323 L 662.541,132.4 L 662.506,132.468 L 662.472,132.554 L 662.455,132.64 L 662.446,132.717 L 662.412,132.811 L 662.395,132.897 L 662.369,132.983 L 662.352,133.069 L 662.352,133.163 L 662.352,133.249 L 662.352,133.343 L 662.352,133.42 L 662.352,133.42 L 662.352,133.515 L 662.352,133.618 L 662.352,133.703 L 662.352,133.789 L 662.369,133.875 L 662.395,133.969 L 662.412,134.055 L 662.446,134.141 L 662.455,134.218 L 662.472,134.312 L 662.506,134.389 L 662.541,134.467 L 662.566,134.535 L 662.601,134.612 L 662.635,134.664 L 662.669,134.741 L 662.712,134.801 L 662.755,134.861 L 662.781,134.913 L 662.841,134.964 L 662.884,135.015 L 662.927,135.05 L 662.978,135.093 L 663.012,135.118 L 663.072,135.161 L 663.124,135.17 L 663.193,135.187 L 663.227,135.213 L 663.287,135.221 L 663.33,135.23 L 663.39,135.23 L 663.39,135.23 L 663.433,135.23 L 663.493,135.221 L 663.536,135.213 L 663.596,135.187 L 663.647,135.17 L 663.699,135.161 L 663.741,135.118 L 663.81,135.093 L 663.853,135.05 L 663.896,135.015 L 663.939,134.964 L 663.982,134.913 L 664.024,134.861 L 664.067,134.801 L 664.11,134.741 L 664.144,134.664 L 664.17,134.612 L 664.222,134.535 L 664.247,134.467 L 664.273,134.389 L 664.299,134.312 L 664.316,134.218 L 664.342,134.141 L 664.367,134.055 L 664.376,133.969 L 664.393,133.875 L 664.402,133.789 L 664.41,133.703 L 664.41,133.618 L 664.427,133.515 L 664.427,133.42"/>
      <path style="fill: #a5a585; fill-opacity: 1; stroke: none" fill-rule="evenodd" d="M 663.647 131.894 L 643.365,135.23 L 638.682,137.563 L 644.137,138.069 L 663.647,135.23 L 663.647,135.23 L 663.647,131.894z"/>
      <path style="fill: #a5a585; fill-opacity: 1; stroke: none" fill-rule="evenodd" d="M 663.647 131.894 L 643.365,135.23 L 638.682,137.563 L 644.137,138.069 L 663.647,135.23 L 663.647,131.894z"/>
      <path style="fill: none; stroke-opacity: 1; stroke-width: 0.02; stroke: #494936" d="M 663.647 131.894 L 643.365,135.23 L 638.682,137.563 L 644.137,138.069 L 663.647,135.23"/>
      <path style="fill: #dbdbce; fill-opacity: 1; stroke: none" fill-rule="evenodd" d="M 663.647 133.172 L 663.39,132.666 L 644.137,135.753 L 641.795,137.048 L 644.402,136.533 L 663.647,133.172z"/>
    </g>
    <path style="fill: none; stroke-opacity: 1; stroke-width: 0.02; stroke: #000000" d="M 508,100 A 40.0031,40.0031 0 1 0 508,180"/>
    <line style="fill: none; stroke-opacity: 1; stroke-width: 0.02; stroke: #000000" x1="508" y1="100" x2="508" y2="180.5"/>
    <rect style="fill: #bfbfbf; fill-opacity: 1; stroke-opacity: 1; stroke-width: 0.02; stroke: #000000" x="432.146" y="119.5" width="40" height="41.3333" rx="0" ry="0"/>
    <line style="fill: none; stroke-opacity: 1; stroke-width: 0.02; stroke: #000000" x1="518" y1="170" x2="567.5" y2="190.5"/>
    <line style="fill: none; stroke-opacity: 1; stroke-width: 0.02; stroke: #000000" x1="519" y1="110" x2="568" y2="90"/>
    <line style="fill: none; stroke-opacity: 1; stroke-width: 0.02; stroke: #000000" x1="517.5" y1="139.5" x2="577.5" y2="139.5"/>
    <g>
      <line style="fill: none; stroke-opacity: 1; stroke-width: 0.02; stroke-dasharray: 20 4 4 4 4 4; stroke: #000000" x1="636.523" y1="183.62" x2="503.479" y2="340.134"/>
      <polygon style="fill: #000000; fill-opacity: 1; stroke-opacity: 1; stroke-width: 0.02; stroke: #000000" fill-rule="evenodd" points="640.332,186.858 642.999,176.001 632.713,180.382 "/>
      <polygon style="fill: #000000; fill-opacity: 1; stroke-opacity: 1; stroke-width: 0.02; stroke: #000000" fill-rule="evenodd" points="499.67,336.896 497.003,347.753 507.289,343.372 "/>
    </g>
    <g>
      <line style="fill: none; stroke-opacity: 1; stroke-width: 0.02; stroke: #000000" x1="690.001" y1="419.754" x2="629.003" y2="419.754"/>
      <polygon style="fill: #000000; fill-opacity: 1; stroke-opacity: 1; stroke-width: 0.02; stroke: #000000" fill-rule="evenodd" points="690.001,424.754 700.001,419.754 690.001,414.754 "/>
      <polygon style="fill: #000000; fill-opacity: 1; stroke-opacity: 1; stroke-width: 0.02; stroke: #000000" fill-rule="evenodd" points="629.003,414.754 619.003,419.754 629.003,424.754 "/>
    </g>
    <g>
      <path style="fill: #005a80; fill-opacity: 1; stroke: none" fill-rule="evenodd" d="M 468.311 232.613 L 468.311,216.301 L 468.677,215.754 L 469.587,215.754 L 469.95,216.301 L 469.95,232.613 L 468.311,232.613z"/>
      <path style="fill: none; stroke-opacity: 1; stroke-width: 0.02; stroke: #aae6ff" d="M 468.311 232.613 L 468.311,216.301 L 468.677,215.754 L 469.587,215.754 L 469.95,216.301 L 469.95,232.613 L 468.311,232.613"/>
      <path style="fill: #2ac0ff; fill-opacity: 1; stroke: none" fill-rule="evenodd" d="M 464.326 252.91 L 465.048,254.36 L 439.501,254.36 L 438.591,252.91 L 438.41,251.278 L 438.591,249.469 L 439.135,247.841 L 447.837,231.344 L 473.387,231.344 L 464.87,247.841 L 464.145,249.469 L 463.96,251.278 L 464.326,252.91z"/>
      <path style="fill: none; stroke-opacity: 1; stroke-width: 0.02; stroke: #aae6ff" d="M 464.326 252.91 L 465.048,254.36 L 439.501,254.36 L 438.591,252.91 L 438.41,251.278 L 438.591,249.469 L 439.135,247.841 L 447.837,231.344 L 473.387,231.344 L 464.87,247.841 L 464.145,249.469 L 463.96,251.278 L 464.326,252.91"/>
      <path style="fill: #ffffff; fill-opacity: 1; stroke: none" fill-rule="evenodd" d="M 443.123 248.378 L 444.392,245.296 L 446.205,245.296 L 445.11,248.378 L 443.123,248.378z"/>
      <path style="fill: #ffffff; fill-opacity: 1; stroke: none" fill-rule="evenodd" d="M 450.556 248.378 L 451.64,245.296 L 453.453,245.296 L 452.365,248.378 L 450.556,248.378z"/>
      <path style="fill: #ffffff; fill-opacity: 1; stroke: none" fill-rule="evenodd" d="M 457.981 248.378 L 459.069,245.296 L 460.889,245.296 L 459.794,248.378 L 457.981,248.378z"/>
      <path style="fill: #ffffff; fill-opacity: 1; stroke: none" fill-rule="evenodd" d="M 447.837 238.777 L 448.928,237.149 L 468.496,237.149 L 467.408,238.777 L 447.837,238.777z"/>
      <path style="fill: #0078aa; fill-opacity: 1; stroke: none" fill-rule="evenodd" d="M 464.326 252.91 L 465.048,254.36 L 474.297,242.214 L 474.112,233.15 L 473.387,231.344 L 464.87,247.841 L 464.145,249.469 L 463.96,251.278 L 464.326,252.91z"/>
      <path style="fill: none; stroke-opacity: 1; stroke-width: 0.02; stroke: #aae6ff" d="M 464.326 252.91 L 465.048,254.36 L 474.297,242.214 L 474.112,233.15 L 473.387,231.344 L 464.87,247.841 L 464.145,249.469 L 463.96,251.278 L 464.326,252.91"/>
    </g>
    <g>
      <path style="fill: #c9c9b6; fill-opacity: 1; stroke: none" fill-rule="evenodd" d="M 385.355 236.822 L 430.455,236.822 L 411.492,255.85 L 366.392,255.85 L 385.355,236.822z"/>
      <path style="fill: none; stroke-opacity: 1; stroke-width: 0.02; stroke: #494936" d="M 385.355 236.822 L 430.455,236.822 L 411.492,255.85 L 366.392,255.85 L 385.355,236.822"/>
      <path style="fill: none; stroke-opacity: 1; stroke-width: 0.02; stroke: #dbdbce" d="M 387.086 252.635 L 387.086,252.737 L 387.105,252.82 L 387.132,252.93 L 387.169,253.041 L 387.224,253.124 L 387.289,253.225 L 387.372,253.317 L 387.455,253.4 L 387.538,253.501 L 387.648,253.603 L 387.759,253.685 L 387.878,253.759 L 388.016,253.833 L 388.145,253.916 L 388.311,253.98 L 388.459,254.063 L 388.624,254.127 L 388.809,254.192 L 388.993,254.247 L 389.168,254.302 L 389.361,254.358 L 389.555,254.413 L 389.757,254.441 L 389.978,254.477 L 390.19,254.496 L 390.411,254.533 L 390.614,254.56 L 390.844,254.588 L 391.074,254.597 L 391.295,254.606 L 391.516,254.606"/>
      <path style="fill: none; stroke-opacity: 1; stroke-width: 0.02; stroke: #dbdbce" d="M 391.028 254.606 L 391.249,254.606 L 391.461,254.597 L 391.673,254.579 L 391.894,254.551 L 392.115,254.533 L 392.317,254.496 L 392.52,254.477 L 392.732,254.431 L 392.925,254.385 L 393.128,254.33 L 393.303,254.275 L 393.487,254.22 L 393.662,254.155 L 393.828,254.091 L 393.975,254.026 L 394.132,253.952 L 394.279,253.87 L 394.408,253.796 L 394.537,253.704 L 394.648,253.612 L 394.749,253.52 L 394.832,253.437 L 394.924,253.335 L 394.997,253.234 L 395.053,253.151 L 395.117,253.05 L 395.145,252.93 L 395.172,252.829 L 395.2,252.737 L 395.209,252.635"/>
      <path style="fill: none; stroke-opacity: 1; stroke-width: 0.02; stroke: #dbdbce" d="M 392.004 248.942 L 391.774,248.942 L 391.553,248.952 L 391.323,248.952 L 391.12,248.97 L 390.899,248.998 L 390.678,249.016 L 390.466,249.034 L 390.245,249.081 L 390.052,249.117 L 389.858,249.145 L 389.665,249.191 L 389.472,249.246 L 389.297,249.292 L 389.131,249.348 L 388.965,249.421 L 388.781,249.477 L 388.652,249.541 L 388.505,249.596 L 388.366,249.67 L 388.256,249.753 L 388.136,249.827 L 388.035,249.891 L 387.934,249.974 L 387.86,250.057 L 387.786,250.149 L 387.713,250.232 L 387.676,250.305 L 387.63,250.398 L 387.602,250.471 L 387.593,250.573 L 387.584,250.646"/>
      <path style="fill: none; stroke-opacity: 1; stroke-width: 0.02; stroke: #dbdbce" d="M 395.688 250.646 L 395.688,250.563 L 395.679,250.471 L 395.642,250.388 L 395.605,250.287 L 395.559,250.213 L 395.486,250.112 L 395.412,250.038 L 395.338,249.946 L 395.228,249.882 L 395.145,249.79 L 395.034,249.716 L 394.887,249.652 L 394.767,249.559 L 394.629,249.513 L 394.482,249.44 L 394.316,249.366 L 394.141,249.311 L 393.966,249.256 L 393.791,249.209 L 393.607,249.173 L 393.413,249.127 L 393.211,249.081 L 393.017,249.053 L 392.815,249.016 L 392.612,248.998 L 392.4,248.97 L 392.179,248.952 L 391.949,248.952 L 391.728,248.942 L 391.516,248.942"/>
      <path style="fill: #a5a585; fill-opacity: 1; stroke: none" fill-rule="evenodd" d="M 366.392 257.821 L 411.492,257.821 L 411.492,255.85 L 366.392,255.85 L 366.392,257.821z"/>
      <path style="fill: none; stroke-opacity: 1; stroke-width: 0.02; stroke: #494936" d="M 366.392 257.821 L 411.492,257.821 L 411.492,255.85 L 366.392,255.85 L 366.392,257.821"/>
      <path style="fill: #a5a585; fill-opacity: 1; stroke: none" fill-rule="evenodd" d="M 385.355 236.822 L 430.455,236.822 L 430.455,205.97 L 385.355,205.97 L 385.355,236.822z"/>
      <path style="fill: none; stroke-opacity: 1; stroke-width: 0.02; stroke: #494936" d="M 385.355 236.822 L 430.455,236.822 L 430.455,205.97 L 385.355,205.97 L 385.355,236.822"/>
      <path style="fill: #7a7a5a; fill-opacity: 1; stroke: none" fill-rule="evenodd" d="M 431.689 235.607 L 431.689,204.754 L 430.455,205.97 L 430.455,236.822 L 431.689,235.607z"/>
      <path style="fill: none; stroke-opacity: 1; stroke-width: 0.02; stroke: #494936" d="M 431.689 235.607 L 431.689,204.754 L 430.455,205.97 L 430.455,236.822 L 431.689,235.607"/>
      <path style="fill: #ffffff; fill-opacity: 1; stroke: none" fill-rule="evenodd" d="M 387.584 234.861 L 428.245,234.861 L 428.245,208.447 L 387.584,208.447 L 387.584,234.861z"/>
      <path style="fill: none; stroke-opacity: 1; stroke-width: 0.02; stroke: #494936" d="M 387.584 234.861 L 428.245,234.861 L 428.245,208.447 L 387.584,208.447 L 387.584,234.861"/>
      <path style="fill: #93936c; fill-opacity: 1; stroke: none" fill-rule="evenodd" d="M 387.584 238.314 L 425.519,238.314 L 415.664,248.196 L 377.729,248.196 L 387.584,238.314z"/>
      <path style="fill: none; stroke-opacity: 1; stroke-width: 0.02; stroke: #494936" d="M 387.584 238.314 L 425.519,238.314 L 415.664,248.196 L 377.729,248.196 L 387.584,238.314"/>
      <path style="fill: #7a7a5a; fill-opacity: 1; stroke: none" fill-rule="evenodd" d="M 393.487 252.009 L 393.487,251.954 L 393.478,251.899 L 393.469,251.843 L 393.441,251.779 L 393.432,251.724 L 393.395,251.678 L 393.377,251.622 L 393.331,251.586 L 393.284,251.53 L 393.257,251.475 L 393.211,251.429 L 393.156,251.383 L 393.1,251.328 L 393.036,251.282 L 392.981,251.254 L 392.916,251.208 L 392.842,251.171 L 392.76,251.144 L 392.695,251.097 L 392.612,251.079 L 392.529,251.042 L 392.456,251.024 L 392.363,250.996 L 392.281,250.978 L 392.179,250.959 L 392.096,250.932 L 392.004,250.922 L 391.921,250.922 L 391.829,250.913 L 391.719,250.913 L 391.645,250.913 L 391.645,250.913 L 391.544,250.913 L 391.443,250.913 L 391.36,250.922 L 391.268,250.922 L 391.185,250.932 L 391.083,250.959 L 391,250.978 L 390.908,250.996 L 390.825,251.024 L 390.743,251.042 L 390.669,251.079 L 390.577,251.097 L 390.512,251.144 L 390.439,251.171 L 390.365,251.208 L 390.301,251.254 L 390.245,251.282 L 390.181,251.328 L 390.126,251.383 L 390.079,251.429 L 390.015,251.475 L 389.987,251.53 L 389.932,251.586 L 389.904,251.622 L 389.877,251.678 L 389.849,251.724 L 389.831,251.779 L 389.822,251.843 L 389.803,251.899 L 389.785,251.954 L 389.785,252.009 L 389.785,252.009 L 389.785,252.074 L 389.803,252.129 L 389.822,252.184 L 389.831,252.239 L 389.849,252.295 L 389.877,252.341 L 389.904,252.405 L 389.932,252.451 L 389.987,252.507 L 390.015,252.543 L 390.079,252.599 L 390.126,252.645 L 390.181,252.7 L 390.245,252.737 L 390.301,252.774 L 390.365,252.82 L 390.439,252.857 L 390.512,252.884 L 390.577,252.93 L 390.669,252.949 L 390.743,252.985 L 390.825,253.004 L 390.908,253.032 L 391,253.05 L 391.083,253.068 L 391.185,253.087 L 391.268,253.105 L 391.36,253.105 L 391.443,253.105 L 391.544,253.114 L 391.645,253.114 L 391.645,253.114 L 391.719,253.114 L 391.829,253.105 L 391.921,253.105 L 392.004,253.105 L 392.096,253.087 L 392.179,253.068 L 392.281,253.05 L 392.363,253.032 L 392.456,253.004 L 392.529,252.985 L 392.612,252.949 L 392.695,252.93 L 392.76,252.884 L 392.842,252.857 L 392.916,252.82 L 392.981,252.774 L 393.036,252.737 L 393.1,252.7 L 393.156,252.645 L 393.211,252.599 L 393.257,252.543 L 393.284,252.507 L 393.331,252.451 L 393.377,252.405 L 393.395,252.341 L 393.432,252.295 L 393.441,252.239 L 393.469,252.184 L 393.478,252.129 L 393.487,252.074 L 393.487,252.009z"/>
      <path style="fill: none; stroke-opacity: 1; stroke-width: 0.02; stroke: #dbdbce" d="M 393.248 251.899 L 393.248,251.843 L 393.238,251.788 L 393.238,251.742 L 393.211,251.705 L 393.192,251.632 L 393.183,251.604 L 393.137,251.549 L 393.1,251.493 L 393.073,251.457 L 393.036,251.42 L 392.981,251.383 L 392.934,251.318 L 392.879,251.282 L 392.824,251.254 L 392.778,251.208 L 392.704,251.171 L 392.649,251.153 L 392.585,251.107 L 392.52,251.088 L 392.437,251.051 L 392.363,251.033 L 392.281,251.015 L 392.207,250.987 L 392.124,250.969 L 392.041,250.959 L 391.949,250.932 L 391.875,250.922 L 391.774,250.913 L 391.7,250.913 L 391.608,250.913 L 391.525,250.913 L 391.525,250.913 L 391.433,250.913 L 391.35,250.913 L 391.258,250.913 L 391.185,250.922 L 391.093,250.932 L 391.019,250.959 L 390.918,250.969 L 390.844,250.987 L 390.779,251.015 L 390.687,251.033 L 390.614,251.051 L 390.522,251.088 L 390.475,251.107 L 390.393,251.153 L 390.337,251.171 L 390.273,251.208 L 390.218,251.254 L 390.162,251.282 L 390.107,251.318 L 390.061,251.383 L 390.015,251.42 L 389.978,251.457 L 389.932,251.493 L 389.914,251.549 L 389.877,251.604 L 389.858,251.632 L 389.84,251.705 L 389.822,251.742 L 389.812,251.788 L 389.803,251.843 L 389.803,251.899 L 389.803,251.899 L 389.803,251.945 L 389.812,252 L 389.822,252.055 L 389.84,252.083 L 389.858,252.138 L 389.877,252.193 L 389.914,252.239 L 389.932,252.286 L 389.978,252.341 L 390.015,252.368 L 390.061,252.414 L 390.107,252.46 L 390.162,252.507 L 390.218,252.534 L 390.273,252.58 L 390.337,252.608 L 390.393,252.645 L 390.475,252.682 L 390.522,252.7 L 390.614,252.737 L 390.687,252.764 L 390.779,252.774 L 390.844,252.801 L 390.918,252.82 L 391.019,252.829 L 391.093,252.857 L 391.185,252.875 L 391.258,252.875 L 391.35,252.875 L 391.433,252.875 L 391.525,252.875 L 391.525,252.875 L 391.608,252.875 L 391.7,252.875 L 391.774,252.875 L 391.875,252.875 L 391.949,252.857 L 392.041,252.829 L 392.124,252.82 L 392.207,252.801 L 392.281,252.774 L 392.363,252.764 L 392.437,252.737 L 392.52,252.7 L 392.585,252.682 L 392.649,252.645 L 392.704,252.608 L 392.778,252.58 L 392.824,252.534 L 392.879,252.507 L 392.934,252.46 L 392.981,252.414 L 393.036,252.368 L 393.073,252.341 L 393.1,252.286 L 393.137,252.239 L 393.183,252.193 L 393.192,252.138 L 393.211,252.083 L 393.238,252.055 L 393.238,252 L 393.248,251.945 L 393.248,251.899"/>
      <path style="fill: none; stroke-opacity: 1; stroke-width: 0.02; stroke: #626248" d="M 387.344 252.875 L 387.344,252.985 L 387.363,253.068 L 387.399,253.17 L 387.427,253.28 L 387.482,253.372 L 387.538,253.455 L 387.62,253.556 L 387.703,253.658 L 387.795,253.741 L 387.888,253.833 L 388.007,253.916 L 388.118,254.008 L 388.265,254.081 L 388.403,254.155 L 388.551,254.22 L 388.707,254.302 L 388.882,254.367 L 389.039,254.431 L 389.241,254.487 L 389.426,254.542 L 389.619,254.606 L 389.812,254.652 L 390.015,254.68 L 390.218,254.717 L 390.439,254.754 L 390.65,254.772 L 390.862,254.809 L 391.083,254.827 L 391.314,254.837 L 391.535,254.837 L 391.756,254.837"/>
      <path style="fill: none; stroke-opacity: 1; stroke-width: 0.02; stroke: #626248" d="M 391.258 254.837 L 391.489,254.837 L 391.7,254.837 L 391.931,254.818 L 392.133,254.791 L 392.345,254.772 L 392.566,254.754 L 392.76,254.717 L 392.971,254.671 L 393.156,254.625 L 393.358,254.588 L 393.552,254.533 L 393.727,254.477 L 393.902,254.413 L 394.067,254.33 L 394.233,254.266 L 394.371,254.192 L 394.519,254.118 L 394.648,254.026 L 394.767,253.952 L 394.887,253.851 L 394.988,253.777 L 395.09,253.685 L 395.172,253.575 L 395.228,253.474 L 395.311,253.391 L 395.347,253.28 L 395.393,253.179 L 395.43,253.068 L 395.43,252.985 L 395.449,252.875"/>
      <path style="fill: none; stroke-opacity: 1; stroke-width: 0.02; stroke: #626248" d="M 392.244 249.182 L 392.032,249.182 L 391.811,249.191 L 391.59,249.191 L 391.369,249.209 L 391.139,249.237 L 390.918,249.246 L 390.724,249.283 L 390.503,249.311 L 390.301,249.366 L 390.107,249.384 L 389.914,249.44 L 389.73,249.477 L 389.545,249.541 L 389.38,249.596 L 389.214,249.652 L 389.039,249.707 L 388.901,249.771 L 388.753,249.836 L 388.624,249.919 L 388.505,249.992 L 388.394,250.057 L 388.284,250.149 L 388.173,250.213 L 388.109,250.287 L 388.035,250.388 L 387.97,250.462 L 387.915,250.554 L 387.878,250.628 L 387.851,250.711 L 387.842,250.812 L 387.832,250.904"/>
      <path style="fill: none; stroke-opacity: 1; stroke-width: 0.02; stroke: #626248" d="M 395.946 250.904 L 395.928,250.803 L 395.918,250.711 L 395.9,250.628 L 395.854,250.536 L 395.799,250.453 L 395.734,250.361 L 395.661,250.287 L 395.578,250.204 L 395.486,250.112 L 395.375,250.038 L 395.265,249.955 L 395.145,249.882 L 394.997,249.817 L 394.869,249.753 L 394.712,249.688 L 394.565,249.615 L 394.399,249.559 L 394.224,249.513 L 394.03,249.458 L 393.846,249.421 L 393.662,249.366 L 393.469,249.329 L 393.266,249.292 L 393.045,249.256 L 392.852,249.237 L 392.64,249.209 L 392.419,249.191 L 392.189,249.191 L 391.986,249.182 L 391.756,249.182"/>
      <path style="fill: #7a7a5a; fill-opacity: 1; stroke: none" fill-rule="evenodd" d="M 430.455 238.554 L 411.492,257.581 L 411.492,255.85 L 430.455,236.822 L 430.455,238.554z"/>
      <path style="fill: none; stroke-opacity: 1; stroke-width: 0.02; stroke: #494936" d="M 430.455 238.554 L 411.492,257.581 L 411.492,255.85 L 430.455,236.822 L 430.455,238.554"/>
      <path style="fill: #7a7a5a; fill-opacity: 1; stroke: none" fill-rule="evenodd" d="M 424.054 235.367 L 424.054,235.837 L 427.747,235.837 L 427.747,235.367 L 424.054,235.367z"/>
      <path style="fill: none; stroke-opacity: 1; stroke-width: 0.02; stroke: #494936" d="M 424.054 235.367 L 424.054,235.837 L 427.747,235.837 L 427.747,235.367 L 424.054,235.367"/>
      <path style="fill: none; stroke-opacity: 1; stroke-width: 0.02; stroke: #000000" d="M 423.041 240.783 L 385.355,240.783"/>
      <path style="fill: none; stroke-opacity: 1; stroke-width: 0.02; stroke: #000000" d="M 420.591 243.26 L 382.905,243.26"/>
      <path style="fill: none; stroke-opacity: 1; stroke-width: 0.02; stroke: #000000" d="M 418.132 245.728 L 380.437,245.728"/>
      <path style="fill: #c9c9b6; fill-opacity: 1; stroke: none" fill-rule="evenodd" d="M 386.589 204.754 L 431.689,204.754 L 430.455,205.97 L 385.355,205.97 L 386.589,204.754z"/>
      <path style="fill: none; stroke-opacity: 1; stroke-width: 0.02; stroke: #494936" d="M 386.589 204.754 L 431.689,204.754 L 430.455,205.97 L 385.355,205.97 L 386.589,204.754"/>
    </g>
    <g>
      <line style="fill: none; stroke-opacity: 1; stroke-width: 0.02; stroke: #000000" x1="381.002" y1="140.809" x2="423.002" y2="140.809"/>
      <rect style="fill: #ffffff; fill-opacity: 1; stroke-opacity: 1; stroke-width: 0.02; stroke: #000000" x="393.602" y="128.209" width="16.8" height="25.2" rx="0" ry="0"/>
      <line style="fill: none; stroke-opacity: 1; stroke-width: 0.02; stroke: #000000" x1="393.602" y1="145.009" x2="410.402" y2="136.609"/>
      <text font-size="12.8" style="fill: #000000; fill-opacity: 1; stroke: none;text-anchor:middle;font-family:sans-serif;font-style:normal;font-weight:normal" x="402.002" y="124.009">
        <tspan x="402.002" y="124.009"></tspan>
      </text>
    </g>
    <g>
      <line style="fill: none; stroke-opacity: 1; stroke-width: 0.02; stroke: #000000" x1="401.002" y1="196.753" x2="401.002" y2="173.754"/>
      <polygon style="fill: #000000; fill-opacity: 1; stroke-opacity: 1; stroke-width: 0.02; stroke: #000000" fill-rule="evenodd" points="406.002,173.754 401.002,163.754 396.002,173.754 "/>
    </g>
    <g>
      <path style="fill: #005a80; fill-opacity: 1; stroke: none" fill-rule="evenodd" d="M 846.933 426.964 L 846.933,410.313 L 847.307,409.754 L 848.236,409.754 L 848.606,410.313 L 848.606,426.964 L 846.933,426.964z"/>
      <path style="fill: none; stroke-opacity: 1; stroke-width: 0.02; stroke: #aae6ff" d="M 846.933 426.964 L 846.933,410.313 L 847.307,409.754 L 848.236,409.754 L 848.606,410.313 L 848.606,426.964 L 846.933,426.964"/>
      <path style="fill: #2ac0ff; fill-opacity: 1; stroke: none" fill-rule="evenodd" d="M 842.865 447.683 L 843.602,449.163 L 817.524,449.163 L 816.595,447.683 L 816.41,446.017 L 816.595,444.17 L 817.15,442.509 L 826.033,425.669 L 852.114,425.669 L 843.421,442.509 L 842.68,444.17 L 842.492,446.017 L 842.865,447.683z"/>
      <path style="fill: none; stroke-opacity: 1; stroke-width: 0.02; stroke: #aae6ff" d="M 842.865 447.683 L 843.602,449.163 L 817.524,449.163 L 816.595,447.683 L 816.41,446.017 L 816.595,444.17 L 817.15,442.509 L 826.033,425.669 L 852.114,425.669 L 843.421,442.509 L 842.68,444.17 L 842.492,446.017 L 842.865,447.683"/>
      <path style="fill: #ffffff; fill-opacity: 1; stroke: none" fill-rule="evenodd" d="M 821.221 443.056 L 822.517,439.911 L 824.367,439.911 L 823.25,443.056 L 821.221,443.056z"/>
      <path style="fill: #ffffff; fill-opacity: 1; stroke: none" fill-rule="evenodd" d="M 828.809 443.056 L 829.915,439.911 L 831.766,439.911 L 830.656,443.056 L 828.809,443.056z"/>
      <path style="fill: #ffffff; fill-opacity: 1; stroke: none" fill-rule="evenodd" d="M 836.389 443.056 L 837.499,439.911 L 839.357,439.911 L 838.239,443.056 L 836.389,443.056z"/>
      <path style="fill: #ffffff; fill-opacity: 1; stroke: none" fill-rule="evenodd" d="M 826.033 433.256 L 827.147,431.594 L 847.122,431.594 L 846.011,433.256 L 826.033,433.256z"/>
      <path style="fill: #0078aa; fill-opacity: 1; stroke: none" fill-rule="evenodd" d="M 842.865 447.683 L 843.602,449.163 L 853.043,436.765 L 852.855,427.512 L 852.114,425.669 L 843.421,442.509 L 842.68,444.17 L 842.492,446.017 L 842.865,447.683z"/>
      <path style="fill: none; stroke-opacity: 1; stroke-width: 0.02; stroke: #aae6ff" d="M 842.865 447.683 L 843.602,449.163 L 853.043,436.765 L 852.855,427.512 L 852.114,425.669 L 843.421,442.509 L 842.68,444.17 L 842.492,446.017 L 842.865,447.683"/>
    </g>
    <g>
      <line style="fill: none; stroke-opacity: 1; stroke-width: 0.02; stroke-dasharray: 20; stroke: #000000" x1="716.002" y1="375.754" x2="452.325" y2="273.374"/>
      <polygon style="fill: #000000; fill-opacity: 1; stroke-opacity: 1; stroke-width: 0.02; stroke: #000000" fill-rule="evenodd" points="454.135,268.713 443.003,269.754 450.515,278.035 "/>
    </g>
    <text font-size="14.4949" style="fill: #000000; fill-opacity: 1; stroke: none;text-anchor:start;font-family:Latin Modern Roman;font-style:normal;font-weight:normal" x="718.002" y="334.754">
      <tspan x="718.002" y="334.754">Robot Framework &amp;</tspan>
      <tspan x="718.002" y="352.873">Ground station software</tspan>
    </text>
    <text font-size="14.4949" style="fill: #000000; fill-opacity: 1; stroke: none;text-anchor:start;font-family:Latin Modern Roman;font-style:normal;font-weight:normal" x="361.002" y="435.754">
      <tspan x="361.002" y="435.754">Ground station</tspan>
      <tspan x="361.002" y="453.873">hardware</tspan>
    </text>
    <text font-size="14.4949" style="fill: #000000; fill-opacity: 1; stroke: none;text-anchor:start;font-family:Latin Modern Roman;font-style:normal;font-weight:normal" x="490.002" y="226.754">
      <tspan x="490.002" y="226.754">Solar simulator</tspan>
      <tspan x="490.002" y="244.873">control</tspan>
    </text>
    <text font-size="14.4949" style="fill: #000000; fill-opacity: 1; stroke: none;text-anchor:start;font-family:Latin Modern Roman;font-style:normal;font-weight:normal" x="652.002" y="197.754">
      <tspan x="652.002" y="197.754">Satellite</tspan>
    </text>
    <text font-size="14.4949" style="fill: #000000; fill-opacity: 1; stroke: none;text-anchor:start;font-family:Latin Modern Roman;font-style:normal;font-weight:normal" x="375.002" y="97.7534">
      <tspan x="375.002" y="97.7534">Solar simulator</tspan>
    </text>
    <text font-size="14.4949" style="fill: #000000; fill-opacity: 1; stroke: none;text-anchor:start;font-family:Latin Modern Roman;font-style:normal;font-weight:normal" x="658" y="274.5">
      <tspan x="658" y="274.5">Laboratory</tspan>
      <tspan x="658" y="292.619">environment</tspan>
    </text>
    <text font-size="12.8" style="fill: #000000; fill-opacity: 1; stroke: none;text-anchor:start;font-family:sans-serif;font-style:normal;font-weight:normal" x="660" y="263">
      <tspan x="660" y="263"></tspan>
    </text>
    <text font-size="12.7998" style="fill: #000000; fill-opacity: 1; stroke: none;text-anchor:start;font-family:sans-serif;font-style:normal;font-weight:normal" x="740" y="345">
      <tspan x="740" y="345"></tspan>
    </text>
  </g>
</svg>
