<?xml version="1.0" encoding="UTF-8"?>
<!DOCTYPE svg PUBLIC "-//W3C//DTD SVG 1.1//EN" "http://www.w3.org/Graphics/SVG/1.1/DTD/svg11.dtd">
<svg width="198mm" height="120mm" viewBox="0 0 19800 12000" version="1.1" xmlns="http://www.w3.org/2000/svg" stroke-width="28.222" stroke-linejoin="round" xml:space="preserve">
 <path fill="rgb(255,255,255)" stroke="none" d="M 9913,11930 L 0,11930 0,-23 19825,-23 19825,11930 9913,11930 Z"/>
 <path fill="none" stroke="rgb(179,179,179)" stroke-linejoin="round" d="M 8518,11041 L 1202,11041 1202,415 15834,415 15834,11041 8518,11041 Z"/>
 <path fill="none" stroke="rgb(179,179,179)" stroke-linejoin="round" d="M 15834,11040 L 1202,11040"/>
 <path fill="none" stroke="rgb(179,179,179)" stroke-linejoin="round" d="M 15834,9268 L 1202,9268"/>
 <path fill="none" stroke="rgb(179,179,179)" stroke-linejoin="round" d="M 15834,7497 L 1202,7497"/>
 <path fill="none" stroke="rgb(179,179,179)" stroke-linejoin="round" d="M 15834,5727 L 1202,5727"/>
 <path fill="none" stroke="rgb(179,179,179)" stroke-linejoin="round" d="M 15834,3956 L 1202,3956"/>
 <path fill="none" stroke="rgb(179,179,179)" stroke-linejoin="round" d="M 15834,2185 L 1202,2185"/>
 <path fill="none" stroke="rgb(179,179,179)" stroke-linejoin="round" d="M 15834,414 L 1202,414"/>
 <path fill="none" stroke="rgb(179,179,179)" stroke-linejoin="round" d="M 1202,11190 L 1202,11040"/>
 <path fill="none" stroke="rgb(179,179,179)" stroke-linejoin="round" d="M 1202,11190 L 1202,11040"/>
 <path fill="none" stroke="rgb(179,179,179)" stroke-linejoin="round" d="M 2116,11190 L 2116,11040"/>
 <path fill="none" stroke="rgb(179,179,179)" stroke-linejoin="round" d="M 2116,11190 L 2116,11040"/>
 <path fill="none" stroke="rgb(179,179,179)" stroke-linejoin="round" d="M 3031,11190 L 3031,11040"/>
 <path fill="none" stroke="rgb(179,179,179)" stroke-linejoin="round" d="M 3031,11190 L 3031,11040"/>
 <path fill="none" stroke="rgb(179,179,179)" stroke-linejoin="round" d="M 3945,11190 L 3945,11040"/>
 <path fill="none" stroke="rgb(179,179,179)" stroke-linejoin="round" d="M 3945,11190 L 3945,11040"/>
 <path fill="none" stroke="rgb(179,179,179)" stroke-linejoin="round" d="M 4860,11190 L 4860,11040"/>
 <path fill="none" stroke="rgb(179,179,179)" stroke-linejoin="round" d="M 4860,11190 L 4860,11040"/>
 <path fill="none" stroke="rgb(179,179,179)" stroke-linejoin="round" d="M 5774,11190 L 5774,11040"/>
 <path fill="none" stroke="rgb(179,179,179)" stroke-linejoin="round" d="M 5774,11190 L 5774,11040"/>
 <path fill="none" stroke="rgb(179,179,179)" stroke-linejoin="round" d="M 6689,11190 L 6689,11040"/>
 <path fill="none" stroke="rgb(179,179,179)" stroke-linejoin="round" d="M 6689,11190 L 6689,11040"/>
 <path fill="none" stroke="rgb(179,179,179)" stroke-linejoin="round" d="M 7603,11190 L 7603,11040"/>
 <path fill="none" stroke="rgb(179,179,179)" stroke-linejoin="round" d="M 7603,11190 L 7603,11040"/>
 <path fill="none" stroke="rgb(179,179,179)" stroke-linejoin="round" d="M 8518,11190 L 8518,11040"/>
 <path fill="none" stroke="rgb(179,179,179)" stroke-linejoin="round" d="M 8518,11190 L 8518,11040"/>
 <path fill="none" stroke="rgb(179,179,179)" stroke-linejoin="round" d="M 9433,11190 L 9433,11040"/>
 <path fill="none" stroke="rgb(179,179,179)" stroke-linejoin="round" d="M 9433,11190 L 9433,11040"/>
 <path fill="none" stroke="rgb(179,179,179)" stroke-linejoin="round" d="M 10346,11190 L 10346,11040"/>
 <path fill="none" stroke="rgb(179,179,179)" stroke-linejoin="round" d="M 10346,11190 L 10346,11040"/>
 <path fill="none" stroke="rgb(179,179,179)" stroke-linejoin="round" d="M 11261,11190 L 11261,11040"/>
 <path fill="none" stroke="rgb(179,179,179)" stroke-linejoin="round" d="M 11261,11190 L 11261,11040"/>
 <path fill="none" stroke="rgb(179,179,179)" stroke-linejoin="round" d="M 12175,11190 L 12175,11040"/>
 <path fill="none" stroke="rgb(179,179,179)" stroke-linejoin="round" d="M 12175,11190 L 12175,11040"/>
 <path fill="none" stroke="rgb(179,179,179)" stroke-linejoin="round" d="M 13090,11190 L 13090,11040"/>
 <path fill="none" stroke="rgb(179,179,179)" stroke-linejoin="round" d="M 13090,11190 L 13090,11040"/>
 <path fill="none" stroke="rgb(179,179,179)" stroke-linejoin="round" d="M 14004,11190 L 14004,11040"/>
 <path fill="none" stroke="rgb(179,179,179)" stroke-linejoin="round" d="M 14004,11190 L 14004,11040"/>
 <path fill="none" stroke="rgb(179,179,179)" stroke-linejoin="round" d="M 14919,11190 L 14919,11040"/>
 <path fill="none" stroke="rgb(179,179,179)" stroke-linejoin="round" d="M 14919,11190 L 14919,11040"/>
 <path fill="none" stroke="rgb(179,179,179)" stroke-linejoin="round" d="M 15834,11190 L 15834,11040"/>
 <path fill="none" stroke="rgb(179,179,179)" stroke-linejoin="round" d="M 15834,11190 L 15834,11040"/>
 <path fill="none" stroke="rgb(179,179,179)" stroke-linejoin="round" d="M 1202,11040 L 15834,11040"/>
 <path fill="none" stroke="rgb(179,179,179)" stroke-linejoin="round" d="M 1052,11040 L 1202,11040"/>
 <path fill="none" stroke="rgb(179,179,179)" stroke-linejoin="round" d="M 1052,11040 L 1202,11040"/>
 <path fill="none" stroke="rgb(179,179,179)" stroke-linejoin="round" d="M 1052,9268 L 1202,9268"/>
 <path fill="none" stroke="rgb(179,179,179)" stroke-linejoin="round" d="M 1052,9268 L 1202,9268"/>
 <path fill="none" stroke="rgb(179,179,179)" stroke-linejoin="round" d="M 1052,7497 L 1202,7497"/>
 <path fill="none" stroke="rgb(179,179,179)" stroke-linejoin="round" d="M 1052,7497 L 1202,7497"/>
 <path fill="none" stroke="rgb(179,179,179)" stroke-linejoin="round" d="M 1052,5727 L 1202,5727"/>
 <path fill="none" stroke="rgb(179,179,179)" stroke-linejoin="round" d="M 1052,5727 L 1202,5727"/>
 <path fill="none" stroke="rgb(179,179,179)" stroke-linejoin="round" d="M 1052,3956 L 1202,3956"/>
 <path fill="none" stroke="rgb(179,179,179)" stroke-linejoin="round" d="M 1052,3956 L 1202,3956"/>
 <path fill="none" stroke="rgb(179,179,179)" stroke-linejoin="round" d="M 1052,2185 L 1202,2185"/>
 <path fill="none" stroke="rgb(179,179,179)" stroke-linejoin="round" d="M 1052,2185 L 1202,2185"/>
 <path fill="none" stroke="rgb(179,179,179)" stroke-linejoin="round" d="M 1052,414 L 1202,414"/>
 <path fill="none" stroke="rgb(179,179,179)" stroke-linejoin="round" d="M 1052,414 L 1202,414"/>
 <path fill="none" stroke="rgb(179,179,179)" stroke-linejoin="round" d="M 1202,11040 L 1202,414"/>
 <path fill="rgb(0,0,0)" stroke="none" d="M 15148,11040 L 15605,11040 15605,10402 15148,10402 15148,11040 Z"/>
 <path fill="rgb(0,0,0)" stroke="none" d="M 14233,11040 L 14690,11040 14690,10650 14233,10650 14233,11040 Z"/>
 <path fill="rgb(0,0,0)" stroke="none" d="M 13318,11040 L 13776,11040 13776,9729 13318,9729 13318,11040 Z"/>
 <path fill="rgb(0,0,0)" stroke="none" d="M 12404,11040 L 12861,11040 12861,9800 12404,9800 12404,11040 Z"/>
 <path fill="rgb(0,0,0)" stroke="none" d="M 11489,11040 L 11947,11040 11947,11004 11489,11004 11489,11040 Z"/>
 <path fill="rgb(0,0,0)" stroke="none" d="M 9661,11040 L 10117,11040 10117,10933 9661,10933 9661,11040 Z"/>
 <path fill="rgb(0,0,0)" stroke="none" d="M 6918,11040 L 7375,11040 7375,10969 6918,10969 6918,11040 Z"/>
 <path fill="rgb(0,0,0)" stroke="none" d="M 5088,11040 L 5546,11040 5546,10544 5088,10544 5088,11040 Z"/>
 <path fill="rgb(153,0,0)" stroke="none" d="M 15148,10402 L 15605,10402 15605,9197 15148,9197 15148,10402 Z"/>
 <path fill="rgb(153,0,0)" stroke="none" d="M 14233,10650 L 14690,10650 14690,10579 14233,10579 14233,10650 Z"/>
 <path fill="rgb(153,0,0)" stroke="none" d="M 13318,9729 L 13776,9729 13776,9410 13318,9410 13318,9729 Z"/>
 <path fill="rgb(153,0,0)" stroke="none" d="M 12404,9800 L 12861,9800 12861,9516 12404,9516 12404,9800 Z"/>
 <path fill="rgb(153,0,0)" stroke="none" d="M 11489,11004 L 11947,11004 11947,10437 11489,10437 11489,11004 Z"/>
 <path fill="rgb(153,0,0)" stroke="none" d="M 10575,11040 L 11032,11040 11032,10792 10575,10792 10575,11040 Z"/>
 <path fill="rgb(153,0,0)" stroke="none" d="M 9661,10933 L 10117,10933 10117,10898 9661,10898 9661,10933 Z"/>
 <path fill="rgb(153,0,0)" stroke="none" d="M 8747,11040 L 9204,11040 9204,10898 8747,10898 8747,11040 Z"/>
 <path fill="rgb(153,0,0)" stroke="none" d="M 7832,11040 L 8289,11040 8289,10898 7832,10898 7832,11040 Z"/>
 <path fill="rgb(153,0,0)" stroke="none" d="M 6003,11040 L 6460,11040 6460,10898 6003,10898 6003,11040 Z"/>
 <path fill="rgb(153,0,0)" stroke="none" d="M 5088,10544 L 5546,10544 5546,10508 5088,10508 5088,10544 Z"/>
 <path fill="rgb(153,0,0)" stroke="none" d="M 4174,11040 L 4631,11040 4631,11004 4174,11004 4174,11040 Z"/>
 <path fill="rgb(153,0,0)" stroke="none" d="M 3259,11040 L 3717,11040 3717,10933 3259,10933 3259,11040 Z"/>
 <path fill="rgb(153,0,0)" stroke="none" d="M 2345,11040 L 2802,11040 2802,11004 2345,11004 2345,11040 Z"/>
 <path fill="rgb(153,0,0)" stroke="none" d="M 1430,11040 L 1887,11040 1887,10898 1430,10898 1430,11040 Z"/>
 <path fill="rgb(255,102,0)" stroke="none" d="M 15148,9197 L 15605,9197 15605,7993 15148,7993 15148,9197 Z"/>
 <path fill="rgb(255,102,0)" stroke="none" d="M 14233,10579 L 14690,10579 14690,10437 14233,10437 14233,10579 Z"/>
 <path fill="rgb(255,102,0)" stroke="none" d="M 13318,9410 L 13776,9410 13776,9091 13318,9091 13318,9410 Z"/>
 <path fill="rgb(255,102,0)" stroke="none" d="M 12404,9516 L 12861,9516 12861,9339 12404,9339 12404,9516 Z"/>
 <path fill="rgb(255,102,0)" stroke="none" d="M 11489,10437 L 11947,10437 11947,10118 11489,10118 11489,10437 Z"/>
 <path fill="rgb(255,102,0)" stroke="none" d="M 10575,10792 L 11032,10792 11032,10614 10575,10614 10575,10792 Z"/>
 <path fill="rgb(255,102,0)" stroke="none" d="M 9661,10898 L 10117,10898 10117,10862 9661,10862 9661,10898 Z"/>
 <path fill="rgb(255,102,0)" stroke="none" d="M 7832,10898 L 8289,10898 8289,10827 7832,10827 7832,10898 Z"/>
 <path fill="rgb(255,102,0)" stroke="none" d="M 6003,10898 L 6460,10898 6460,10827 6003,10827 6003,10898 Z"/>
 <path fill="rgb(255,102,0)" stroke="none" d="M 4174,11004 L 4631,11004 4631,10969 4174,10969 4174,11004 Z"/>
 <path fill="rgb(255,102,0)" stroke="none" d="M 3259,10933 L 3717,10933 3717,10898 3259,10898 3259,10933 Z"/>
 <path fill="rgb(255,211,32)" stroke="none" d="M 15148,7993 L 15605,7993 15605,2078 15148,2078 15148,7993 Z"/>
 <path fill="rgb(255,211,32)" stroke="none" d="M 14233,10437 L 14690,10437 14690,8914 14233,8914 14233,10437 Z"/>
 <path fill="rgb(255,211,32)" stroke="none" d="M 13318,9091 L 13776,9091 13776,7993 13318,7993 13318,9091 Z"/>
 <path fill="rgb(255,211,32)" stroke="none" d="M 12404,9339 L 12861,9339 12861,8170 12404,8170 12404,9339 Z"/>
 <path fill="rgb(255,211,32)" stroke="none" d="M 11489,10118 L 11947,10118 11947,8524 11489,8524 11489,10118 Z"/>
 <path fill="rgb(255,211,32)" stroke="none" d="M 10575,10614 L 11032,10614 11032,10579 10575,10579 10575,10614 Z"/>
 <path fill="rgb(255,211,32)" stroke="none" d="M 9661,10862 L 10117,10862 10117,10792 9661,10792 9661,10862 Z"/>
 <path fill="rgb(255,211,32)" stroke="none" d="M 8747,10898 L 9204,10898 9204,10827 8747,10827 8747,10898 Z"/>
 <path fill="rgb(255,211,32)" stroke="none" d="M 7832,10827 L 8289,10827 8289,10721 7832,10721 7832,10827 Z"/>
 <path fill="rgb(255,211,32)" stroke="none" d="M 5088,10508 L 5546,10508 5546,10473 5088,10473 5088,10508 Z"/>
 <path fill="rgb(255,211,32)" stroke="none" d="M 3259,10898 L 3717,10898 3717,10862 3259,10862 3259,10898 Z"/>
 <path fill="rgb(87,157,28)" stroke="none" d="M 15148,2078 L 15605,2078 15605,2008 15148,2008 15148,2078 Z"/>
 <path fill="rgb(87,157,28)" stroke="none" d="M 14233,8914 L 14690,8914 14690,8772 14233,8772 14233,8914 Z"/>
 <path fill="rgb(87,157,28)" stroke="none" d="M 13318,7993 L 13776,7993 13776,7851 13318,7851 13318,7993 Z"/>
 <path fill="rgb(87,157,28)" stroke="none" d="M 12404,8170 L 12861,8170 12861,6895 12404,6895 12404,8170 Z"/>
 <path fill="rgb(87,157,28)" stroke="none" d="M 11489,8524 L 11947,8524 11947,8241 11489,8241 11489,8524 Z"/>
 <path fill="rgb(87,157,28)" stroke="none" d="M 10575,10579 L 11032,10579 11032,10225 10575,10225 10575,10579 Z"/>
 <path fill="rgb(87,157,28)" stroke="none" d="M 9661,10792 L 10117,10792 10117,10614 9661,10614 9661,10792 Z"/>
 <path fill="rgb(87,157,28)" stroke="none" d="M 8747,10827 L 9204,10827 9204,10508 8747,10508 8747,10827 Z"/>
 <path fill="rgb(87,157,28)" stroke="none" d="M 7832,10721 L 8289,10721 8289,10650 7832,10650 7832,10721 Z"/>
 <path fill="rgb(87,157,28)" stroke="none" d="M 6918,10969 L 7375,10969 7375,10756 6918,10756 6918,10969 Z"/>
 <path fill="rgb(87,157,28)" stroke="none" d="M 6003,10827 L 6460,10827 6460,10792 6003,10792 6003,10827 Z"/>
 <path fill="rgb(87,157,28)" stroke="none" d="M 5088,10473 L 5546,10473 5546,10331 5088,10331 5088,10473 Z"/>
 <path fill="rgb(87,157,28)" stroke="none" d="M 4174,10969 L 4631,10969 4631,10933 4174,10933 4174,10969 Z"/>
 <path fill="rgb(87,157,28)" stroke="none" d="M 3259,10862 L 3717,10862 3717,10827 3259,10827 3259,10862 Z"/>
 <path fill="rgb(87,157,28)" stroke="none" d="M 1430,10898 L 1887,10898 1887,10862 1430,10862 1430,10898 Z"/>
 <text class="TextShape"><tspan class="TextParagraph" font-family="Liberation Sans, sans-serif" font-size="353px" font-weight="400"><tspan class="TextPosition" x="1288" y="11608"><tspan fill="rgb(0,0,0)" stroke="none">2000</tspan></tspan></tspan></text>
 <text class="TextShape"><tspan class="TextParagraph" font-family="Liberation Sans, sans-serif" font-size="353px" font-weight="400"><tspan class="TextPosition" x="2202" y="11608"><tspan fill="rgb(0,0,0)" stroke="none">2001</tspan></tspan></tspan></text>
 <text class="TextShape"><tspan class="TextParagraph" font-family="Liberation Sans, sans-serif" font-size="353px" font-weight="400"><tspan class="TextPosition" x="3117" y="11608"><tspan fill="rgb(0,0,0)" stroke="none">2003</tspan></tspan></tspan></text>
 <text class="TextShape"><tspan class="TextParagraph" font-family="Liberation Sans, sans-serif" font-size="353px" font-weight="400"><tspan class="TextPosition" x="4031" y="11608"><tspan fill="rgb(0,0,0)" stroke="none">2005</tspan></tspan></tspan></text>
 <text class="TextShape"><tspan class="TextParagraph" font-family="Liberation Sans, sans-serif" font-size="353px" font-weight="400"><tspan class="TextPosition" x="4946" y="11608"><tspan fill="rgb(0,0,0)" stroke="none">2006</tspan></tspan></tspan></text>
 <text class="TextShape"><tspan class="TextParagraph" font-family="Liberation Sans, sans-serif" font-size="353px" font-weight="400"><tspan class="TextPosition" x="5861" y="11608"><tspan fill="rgb(0,0,0)" stroke="none">2007</tspan></tspan></tspan></text>
 <text class="TextShape"><tspan class="TextParagraph" font-family="Liberation Sans, sans-serif" font-size="353px" font-weight="400"><tspan class="TextPosition" x="6775" y="11608"><tspan fill="rgb(0,0,0)" stroke="none">2008</tspan></tspan></tspan></text>
 <text class="TextShape"><tspan class="TextParagraph" font-family="Liberation Sans, sans-serif" font-size="353px" font-weight="400"><tspan class="TextPosition" x="7690" y="11608"><tspan fill="rgb(0,0,0)" stroke="none">2009</tspan></tspan></tspan></text>
 <text class="TextShape"><tspan class="TextParagraph" font-family="Liberation Sans, sans-serif" font-size="353px" font-weight="400"><tspan class="TextPosition" x="8604" y="11608"><tspan fill="rgb(0,0,0)" stroke="none">2010</tspan></tspan></tspan></text>
 <text class="TextShape"><tspan class="TextParagraph" font-family="Liberation Sans, sans-serif" font-size="353px" font-weight="400"><tspan class="TextPosition" x="9519" y="11608"><tspan fill="rgb(0,0,0)" stroke="none">2011</tspan></tspan></tspan></text>
 <text class="TextShape"><tspan class="TextParagraph" font-family="Liberation Sans, sans-serif" font-size="353px" font-weight="400"><tspan class="TextPosition" x="10433" y="11608"><tspan fill="rgb(0,0,0)" stroke="none">2012</tspan></tspan></tspan></text>
 <text class="TextShape"><tspan class="TextParagraph" font-family="Liberation Sans, sans-serif" font-size="353px" font-weight="400"><tspan class="TextPosition" x="11348" y="11608"><tspan fill="rgb(0,0,0)" stroke="none">2013</tspan></tspan></tspan></text>
 <text class="TextShape"><tspan class="TextParagraph" font-family="Liberation Sans, sans-serif" font-size="353px" font-weight="400"><tspan class="TextPosition" x="12263" y="11608"><tspan fill="rgb(0,0,0)" stroke="none">2014</tspan></tspan></tspan></text>
 <text class="TextShape"><tspan class="TextParagraph" font-family="Liberation Sans, sans-serif" font-size="353px" font-weight="400"><tspan class="TextPosition" x="13177" y="11608"><tspan fill="rgb(0,0,0)" stroke="none">2015</tspan></tspan></tspan></text>
 <text class="TextShape"><tspan class="TextParagraph" font-family="Liberation Sans, sans-serif" font-size="353px" font-weight="400"><tspan class="TextPosition" x="14092" y="11608"><tspan fill="rgb(0,0,0)" stroke="none">2016</tspan></tspan></tspan></text>
 <text class="TextShape"><tspan class="TextParagraph" font-family="Liberation Sans, sans-serif" font-size="353px" font-weight="400"><tspan class="TextPosition" x="15006" y="11608"><tspan fill="rgb(0,0,0)" stroke="none">2017</tspan></tspan></tspan></text>
 <text class="TextShape"><tspan class="TextParagraph" font-family="Liberation Sans, sans-serif" font-size="353px" font-weight="400"><tspan class="TextPosition" x="767" y="11161"><tspan fill="rgb(0,0,0)" stroke="none">0</tspan></tspan></tspan></text>
 <text class="TextShape"><tspan class="TextParagraph" font-family="Liberation Sans, sans-serif" font-size="353px" font-weight="400"><tspan class="TextPosition" x="582" y="9389"><tspan fill="rgb(0,0,0)" stroke="none">50</tspan></tspan></tspan></text>
 <text class="TextShape"><tspan class="TextParagraph" font-family="Liberation Sans, sans-serif" font-size="353px" font-weight="400"><tspan class="TextPosition" x="396" y="7618"><tspan fill="rgb(0,0,0)" stroke="none">100</tspan></tspan></tspan></text>
 <text class="TextShape"><tspan class="TextParagraph" font-family="Liberation Sans, sans-serif" font-size="353px" font-weight="400"><tspan class="TextPosition" x="396" y="5847"><tspan fill="rgb(0,0,0)" stroke="none">150</tspan></tspan></tspan></text>
 <text class="TextShape"><tspan class="TextParagraph" font-family="Liberation Sans, sans-serif" font-size="353px" font-weight="400"><tspan class="TextPosition" x="396" y="4076"><tspan fill="rgb(0,0,0)" stroke="none">200</tspan></tspan></tspan></text>
 <text class="TextShape"><tspan class="TextParagraph" font-family="Liberation Sans, sans-serif" font-size="353px" font-weight="400"><tspan class="TextPosition" x="396" y="2305"><tspan fill="rgb(0,0,0)" stroke="none">250</tspan></tspan></tspan></text>
 <text class="TextShape"><tspan class="TextParagraph" font-family="Liberation Sans, sans-serif" font-size="353px" font-weight="400"><tspan class="TextPosition" x="396" y="534"><tspan fill="rgb(0,0,0)" stroke="none">300</tspan></tspan></tspan></text>
 <path fill="rgb(0,0,0)" stroke="none" d="M 16071,9273 L 15965,9273 15965,9062 16176,9062 16176,9273 16071,9273 Z"/>
 <path fill="rgb(153,0,0)" stroke="none" d="M 16071,8170 L 15965,8170 15965,7959 16176,7959 16176,8170 16071,8170 Z"/>
 <path fill="rgb(255,102,0)" stroke="none" d="M 16071,6273 L 15965,6273 15965,6062 16176,6062 16176,6273 16071,6273 Z"/>
 <path fill="rgb(255,211,32)" stroke="none" d="M 16071,4377 L 15965,4377 15965,4166 16176,4166 16176,4377 16071,4377 Z"/>
 <path fill="rgb(87,157,28)" stroke="none" d="M 16071,3274 L 15965,3274 15965,3063 16176,3063 16176,3274 16071,3274 Z"/>
 <text class="TextShape"><tspan class="TextParagraph" font-family="Liberation Sans, sans-serif" font-size="353px" font-weight="400"><tspan class="TextPosition" x="16276" y="3288"><tspan fill="rgb(0,0,0)" stroke="none">Full mission</tspan></tspan></tspan></text>
 <text class="TextShape"><tspan class="TextParagraph" font-family="Liberation Sans, sans-serif" font-size="353px" font-weight="400"><tspan class="TextPosition" x="16276" y="4391"><tspan fill="rgb(0,0,0)" stroke="none">Partial </tspan></tspan><tspan class="TextPosition" x="16276" y="4788"><tspan fill="rgb(0,0,0)" stroke="none">mission/Mission </tspan></tspan><tspan class="TextPosition" x="16276" y="5185"><tspan fill="rgb(0,0,0)" stroke="none">ongoing</tspan></tspan></tspan></text>
 <text class="TextShape"><tspan class="TextParagraph" font-family="Liberation Sans, sans-serif" font-size="353px" font-weight="400"><tspan class="TextPosition" x="16276" y="6287"><tspan fill="rgb(0,0,0)" stroke="none">Early </tspan></tspan><tspan class="TextPosition" x="16276" y="6684"><tspan fill="rgb(0,0,0)" stroke="none">loss/Communication </tspan></tspan><tspan class="TextPosition" x="16276" y="7081"><tspan fill="rgb(0,0,0)" stroke="none">established</tspan></tspan></tspan></text>
 <text class="TextShape"><tspan class="TextParagraph" font-family="Liberation Sans, sans-serif" font-size="353px" font-weight="400"><tspan class="TextPosition" x="16276" y="8184"><tspan fill="rgb(0,0,0)" stroke="none">DOA/Deployed</tspan></tspan></tspan></text>
 <text class="TextShape"><tspan class="TextParagraph" font-family="Liberation Sans, sans-serif" font-size="353px" font-weight="400"><tspan class="TextPosition" x="16276" y="9287"><tspan fill="rgb(0,0,0)" stroke="none">Launch fail</tspan></tspan></tspan></text>
</svg>